<svg width="710" height="583" fill="none" xmlns="http://www.w3.org/2000/svg"><mask id="a" style="mask-type:alpha" maskUnits="userSpaceOnUse" x="0" y="0" width="710" height="583"><rect width="710" height="583" rx="8" fill="#FEFEFE"/></mask><g mask="url(#a)"><path d="M687.635-68.07c3.55 10.65 11.715 19.525 22.01 24.495v-4.97c-12.07-6.745-19.88-18.815-19.88-32.66V-127h-4.26v45.795c0 21.3-18.815 38.695-42.245 38.695-23.075 0-42.245-17.395-42.245-38.695V-127h-4.26v45.795c0 21.3-18.815 38.695-42.245 38.695-23.075 0-42.245-17.395-42.245-38.695V-127h-4.26v45.795c0 21.3-18.815 38.695-42.245 38.695-23.075 0-42.245-17.395-42.245-38.695V-127h-4.26v45.795c0 21.3-18.815 38.695-42.245 38.695-23.075 0-42.245-17.395-42.245-38.695V-127h-4.26v45.795c0 21.3-18.815 38.695-42.245 38.695-23.075 0-42.245-17.395-42.245-38.695V-127h-4.26v45.795c0 21.3-18.815 38.695-42.245 38.695-23.075 0-42.245-17.395-42.245-38.695V-127h-4.26v45.795c0 21.3-18.815 38.695-42.245 38.695-23.075 0-42.245-17.395-42.245-38.695V-127h-4.26v45.795c0 21.3-18.815 38.695-42.245 38.695-8.165 0-15.62-2.13-22.01-5.68v4.97c6.035 2.84 12.78 4.97 19.88 5.325V7.9c0 13.845-8.165 25.915-19.88 32.66v4.97c10.295-5.325 18.46-14.2 22.01-24.495 5.68 16.685 22.365 28.755 42.245 29.82V96.65c0 21.3-18.815 38.695-42.245 38.695-8.165 0-15.62-2.13-22.01-5.68v4.97c6.035 2.84 12.78 4.97 19.88 5.325v45.795c0 13.845-8.165 25.915-19.88 32.66v4.97c10.295-5.325 18.46-14.2 22.01-24.495 5.68 16.685 22.365 29.11 42.245 29.82v45.795c0 21.3-18.815 38.695-42.245 38.695-8.165 0-15.62-2.13-22.01-5.68v4.97c6.035 2.84 12.78 4.97 19.88 5.325v45.795c0 13.845-8.165 25.915-19.88 32.66v4.97c10.295-5.325 18.46-14.2 22.01-24.495 5.68 16.685 22.365 29.11 42.245 29.82v45.795c0 21.3-18.815 38.695-42.245 38.695-8.165 0-15.62-2.13-22.01-5.68v4.97c6.035 2.84 12.78 4.97 19.88 5.325v45.795c0 13.845-8.165 25.915-19.88 32.66v4.97c10.295-5.325 18.46-14.2 22.01-24.495 5.68 16.685 22.365 29.11 42.245 29.82h4.26c19.88-.71 36.21-13.135 42.245-29.82 5.68 16.685 22.365 29.11 42.245 29.82h4.26c19.88-.71 36.21-13.135 42.245-29.82 5.68 16.685 22.365 29.11 42.245 29.82h4.26c19.88-.71 36.21-13.135 42.245-29.82 5.68 16.685 22.365 29.11 42.245 29.82h4.26c19.88-.71 36.21-13.135 42.245-29.82 5.68 16.685 22.365 29.11 42.245 29.82h4.26c19.88-.71 36.21-13.135 42.245-29.82 5.68 16.685 22.365 29.11 42.245 29.82h4.26c19.88-.71 36.21-13.135 42.245-29.82 5.68 16.685 22.365 29.11 42.245 29.82h4.26c19.88-.71 36.21-13.135 42.245-29.82 5.68 16.685 22.365 29.11 42.245 29.82h4.26c7.1-.355 13.845-2.13 19.88-5.325v-4.97c-6.39 3.55-14.2 5.68-22.01 5.68-23.075 0-42.245-17.395-42.245-38.695v-46.86c19.88-.71 36.21-13.135 42.245-29.82 3.55 10.65 11.715 19.525 22.01 24.495v-4.97c-12.07-6.745-19.88-18.815-19.88-32.66V405.5c7.1-.355 13.845-2.13 19.88-5.325v-4.97c-6.39 3.55-14.2 5.68-22.01 5.68-23.075 0-42.245-17.395-42.245-38.695v-45.44c19.88-.71 36.21-13.135 42.245-29.82 3.55 10.65 11.715 19.525 22.01 24.495v-4.97c-12.07-6.745-19.88-18.815-19.88-32.66V228c7.1-.355 13.845-2.13 19.88-5.325v-4.97c-6.39 3.55-14.2 5.68-22.01 5.68-23.075 0-42.245-17.395-42.245-38.695v-45.44c19.88-.71 36.21-13.135 42.245-29.82 3.55 10.65 11.715 19.525 22.01 24.495v-4.97c-12.07-6.745-19.88-18.815-19.88-32.66V50.5c7.1-.355 13.845-2.13 19.88-5.325v-4.97c-6.39 3.55-14.2 5.68-22.01 5.68-23.075 0-42.245-17.395-42.245-38.695v-45.44c19.525-.71 36.21-13.135 42.245-29.82zM556.64-38.25c19.88-.71 36.21-13.135 42.245-29.82 5.68 16.685 22.365 28.755 42.245 29.82V7.545c0 21.3-18.815 38.695-42.245 38.695-23.075 0-42.245-17.395-42.245-38.695V-38.25zM152.65 228v45.795c0 21.3-18.815 38.695-42.245 38.695-23.075 0-42.245-17.395-42.245-38.695V228c19.88-.71 36.21-13.135 42.245-29.82 6.035 16.685 22.72 29.11 42.245 29.82zm-39.76-42.955V139.25c19.88-.71 36.21-13.135 42.245-29.82 5.68 16.685 22.365 28.755 42.245 29.82v45.795c0 21.3-18.815 38.695-42.245 38.695-23.43 0-42.245-17.395-42.245-38.695zm0 131.705c19.88-.71 36.21-13.135 42.245-29.82 5.68 16.685 22.365 29.11 42.245 29.82v45.795c0 21.3-18.815 38.695-42.245 38.695-23.075 0-42.245-17.395-42.245-38.695V316.75zm44.375-42.955V228c19.88-.71 36.21-13.135 42.245-29.82 5.68 16.685 22.365 29.11 42.245 29.82v45.795c0 21.3-18.815 38.695-42.245 38.695-23.43 0-42.245-17.395-42.245-38.695zm44.375-88.75V139.25c19.88-.71 36.21-13.135 42.245-29.82 5.68 16.685 22.365 28.755 42.245 29.82v45.795c0 21.3-18.815 38.695-42.245 38.695-23.43 0-42.245-17.395-42.245-38.695zm0 131.705c19.88-.71 36.21-13.135 42.245-29.82 5.68 16.685 22.365 29.11 42.245 29.82v45.795c0 21.3-18.815 38.695-42.245 38.695-23.075 0-42.245-17.395-42.245-38.695V316.75zm44.375-42.955V228c19.88-.71 36.21-13.135 42.245-29.82 5.68 16.685 22.365 29.11 42.245 29.82v45.795c0 21.3-18.815 38.695-42.245 38.695-23.43 0-42.245-17.395-42.245-38.695zm44.375-88.75V139.25c19.88-.71 36.21-13.135 42.245-29.82 5.68 16.685 22.365 28.755 42.245 29.82v45.795c0 21.3-18.815 38.695-42.245 38.695-23.43 0-42.245-17.395-42.245-38.695zm0 131.705c19.88-.71 36.21-13.135 42.245-29.82 5.68 16.685 22.365 29.11 42.245 29.82v45.795c0 21.3-18.815 38.695-42.245 38.695-23.075 0-42.245-17.395-42.245-38.695V316.75zm44.375-42.955V228c19.88-.71 36.21-13.135 42.245-29.82 5.68 16.685 22.365 29.11 42.245 29.82v45.795c0 21.3-18.815 38.695-42.245 38.695-23.43 0-42.245-17.395-42.245-38.695zm44.375-88.75V139.25c19.88-.71 36.21-13.135 42.245-29.82 5.68 16.685 22.365 28.755 42.245 29.82v45.795c0 21.3-18.815 38.695-42.245 38.695-23.43 0-42.245-17.395-42.245-38.695zm0 131.705c19.88-.71 36.21-13.135 42.245-29.82 5.68 16.685 22.365 29.11 42.245 29.82v45.795c0 21.3-18.815 38.695-42.245 38.695-23.075 0-42.245-17.395-42.245-38.695V316.75zm44.375-42.955V228c19.88-.71 36.21-13.135 42.245-29.82 5.68 16.685 22.365 29.11 42.245 29.82v45.795c0 21.3-18.815 38.695-42.245 38.695-23.43 0-42.245-17.395-42.245-38.695zm44.375-88.75V139.25c19.88-.71 36.21-13.135 42.245-29.82 5.68 16.685 22.365 28.755 42.245 29.82v45.795c0 21.3-18.815 38.695-42.245 38.695-23.43 0-42.245-17.395-42.245-38.695zm0 131.705c19.88-.71 36.21-13.135 42.245-29.82 5.68 16.685 22.365 29.11 42.245 29.82v45.795c0 21.3-18.815 38.695-42.245 38.695-23.075 0-42.245-17.395-42.245-38.695V316.75zm44.375-42.955V228c19.88-.71 36.21-13.135 42.245-29.82 5.68 16.685 22.365 29.11 42.245 29.82v45.795c0 21.3-18.815 38.695-42.245 38.695-23.43 0-42.245-17.395-42.245-38.695zm44.375 42.955c19.88-.71 36.21-13.135 42.245-29.82 5.68 16.685 22.365 29.11 42.245 29.82v45.795c0 21.3-18.815 38.695-42.245 38.695-23.075 0-42.245-17.395-42.245-38.695V316.75zm0-131.705V139.25c19.88-.71 36.21-13.135 42.245-29.82 5.68 16.685 22.365 28.755 42.245 29.82v45.795c0 21.3-18.815 38.695-42.245 38.695-23.43 0-42.245-17.395-42.245-38.695zM596.4 50.5v45.795c0 21.3-18.815 38.695-42.245 38.695-23.075 0-42.245-17.395-42.245-38.695V50.5c19.88-.71 36.21-13.135 42.245-29.82 6.035 16.685 22.72 29.11 42.245 29.82zM467.89-38.25c19.88-.71 36.21-13.135 42.245-29.82 5.68 16.685 22.365 28.755 42.245 29.82V7.545c0 21.3-18.815 38.695-42.245 38.695-23.075 0-42.245-17.395-42.245-38.695V-38.25zm39.76 88.75v45.795c0 21.3-18.815 38.695-42.245 38.695-23.075 0-42.245-17.395-42.245-38.695V50.5c19.88-.71 36.21-13.135 42.245-29.82 6.035 16.685 22.72 29.11 42.245 29.82zM379.14-38.25c19.88-.71 36.21-13.135 42.245-29.82 5.68 16.685 22.365 28.755 42.245 29.82V7.545c0 21.3-18.815 38.695-42.245 38.695-23.075 0-42.245-17.395-42.245-38.695V-38.25zM418.9 50.5v45.795c0 21.3-18.815 38.695-42.245 38.695-23.075 0-42.245-17.395-42.245-38.695V50.5c19.88-.71 36.21-13.135 42.245-29.82 6.035 16.685 22.72 29.11 42.245 29.82zM290.39-38.25c19.88-.71 36.21-13.135 42.245-29.82 5.68 16.685 22.365 28.755 42.245 29.82V7.545c0 21.3-18.815 38.695-42.245 38.695-23.075 0-42.245-17.395-42.245-38.695V-38.25zm39.76 88.75v45.795c0 21.3-18.815 38.695-42.245 38.695-23.075 0-42.245-17.395-42.245-38.695V50.5c19.88-.71 36.21-13.135 42.245-29.82 6.035 16.685 22.72 29.11 42.245 29.82zM201.64-38.25c19.88-.71 36.21-13.135 42.245-29.82 5.68 16.685 22.365 28.755 42.245 29.82V7.545c0 21.3-18.815 38.695-42.245 38.695-23.075 0-42.245-17.395-42.245-38.695V-38.25zM241.4 50.5v45.795c0 21.3-18.815 38.695-42.245 38.695-23.075 0-42.245-17.395-42.245-38.695V50.5c19.88-.71 36.21-13.135 42.245-29.82 6.035 16.685 22.72 29.11 42.245 29.82zM112.89-38.25c19.88-.71 36.21-13.135 42.245-29.82 5.68 16.685 22.365 28.755 42.245 29.82V7.545c0 21.3-18.815 38.695-42.245 38.695-23.075 0-42.245-17.395-42.245-38.695V-38.25zm39.76 88.75v45.795c0 21.3-18.815 38.695-42.245 38.695-23.075 0-42.245-17.395-42.245-38.695V50.5c19.88-.71 36.21-13.135 42.245-29.82 6.035 16.685 22.72 29.11 42.245 29.82zM24.14 7.545V-38.25c19.88-.71 36.21-13.135 42.245-29.82 5.68 16.685 22.365 28.755 42.245 29.82V7.545c0 21.3-18.815 38.695-42.245 38.695-23.43 0-42.245-17.395-42.245-38.695zm0 177.5V139.25c19.88-.71 36.21-13.135 42.245-29.82 5.68 16.685 22.365 28.755 42.245 29.82v45.795c0 21.3-18.815 38.695-42.245 38.695-23.43 0-42.245-17.395-42.245-38.695zm0 177.5V316.75c19.88-.71 36.21-13.135 42.245-29.82 5.68 16.685 22.365 29.11 42.245 29.82v45.795c0 21.3-18.815 38.695-42.245 38.695-23.43 0-42.245-17.395-42.245-38.695zm84.135 177.5c0 21.3-18.815 38.695-42.245 38.695-23.075 0-42.245-17.395-42.245-38.695V494.25c19.88-.71 36.21-13.135 42.245-29.82 5.68 16.685 22.365 29.11 42.245 29.82v45.795zm-39.76-88.75V405.5c19.88-.71 36.21-13.135 42.245-29.82 5.68 16.685 22.365 29.11 42.245 29.82v45.795c0 21.3-18.815 38.695-42.245 38.695-23.43 0-42.245-17.395-42.245-38.695zm128.51 88.75c0 21.3-18.815 38.695-42.245 38.695-23.075 0-42.245-17.395-42.245-38.695V494.25c19.88-.71 36.21-13.135 42.245-29.82 5.68 16.685 22.365 29.11 42.245 29.82v45.795zm-39.76-88.75V405.5c19.88-.71 36.21-13.135 42.245-29.82 5.68 16.685 22.365 29.11 42.245 29.82v45.795c0 21.3-18.815 38.695-42.245 38.695-23.43 0-42.245-17.395-42.245-38.695zm128.51 88.75c0 21.3-18.815 38.695-42.245 38.695-23.075 0-42.245-17.395-42.245-38.695V494.25c19.88-.71 36.21-13.135 42.245-29.82 5.68 16.685 22.365 29.11 42.245 29.82v45.795zm-39.76-88.75V405.5c19.88-.71 36.21-13.135 42.245-29.82 5.68 16.685 22.365 29.11 42.245 29.82v45.795c0 21.3-18.815 38.695-42.245 38.695-23.43 0-42.245-17.395-42.245-38.695zm128.51 88.75c0 21.3-18.815 38.695-42.245 38.695-23.075 0-42.245-17.395-42.245-38.695V494.25c19.88-.71 36.21-13.135 42.245-29.82 5.68 16.685 22.365 29.11 42.245 29.82v45.795zm-39.76-88.75V405.5c19.88-.71 36.21-13.135 42.245-29.82 5.68 16.685 22.365 29.11 42.245 29.82v45.795c0 21.3-18.815 38.695-42.245 38.695-23.43 0-42.245-17.395-42.245-38.695zm128.51 88.75c0 21.3-18.815 38.695-42.245 38.695-23.075 0-42.245-17.395-42.245-38.695V494.25c19.88-.71 36.21-13.135 42.245-29.82 5.68 16.685 22.365 29.11 42.245 29.82v45.795zm-39.76-88.75V405.5c19.88-.71 36.21-13.135 42.245-29.82 5.68 16.685 22.365 29.11 42.245 29.82v45.795c0 21.3-18.815 38.695-42.245 38.695-23.43 0-42.245-17.395-42.245-38.695zm128.51 88.75c0 21.3-18.815 38.695-42.245 38.695-23.075 0-42.245-17.395-42.245-38.695V494.25c19.88-.71 36.21-13.135 42.245-29.82 5.68 16.685 22.365 29.11 42.245 29.82v45.795zm-39.76-88.75V405.5c19.88-.71 36.21-13.135 42.245-29.82 5.68 16.685 22.365 29.11 42.245 29.82v45.795c0 21.3-18.815 38.695-42.245 38.695-23.43 0-42.245-17.395-42.245-38.695zm128.51 88.75c0 21.3-18.815 38.695-42.245 38.695-23.075 0-42.245-17.395-42.245-38.695V494.25c19.88-.71 36.21-13.135 42.245-29.82 5.68 16.685 22.365 29.11 42.245 29.82v45.795zM685.15 405.5v45.795c0 21.3-18.815 38.695-42.245 38.695-23.075 0-42.245-17.395-42.245-38.695V405.5c19.88-.71 36.21-13.135 42.245-29.82 6.035 16.685 22.72 29.11 42.245 29.82zm0-177.5v45.795c0 21.3-18.815 38.695-42.245 38.695-23.075 0-42.245-17.395-42.245-38.695V228c19.88-.71 36.21-13.135 42.245-29.82 6.035 16.685 22.72 29.11 42.245 29.82zm0-177.5v45.795c0 21.3-18.815 38.695-42.245 38.695-23.075 0-42.245-17.395-42.245-38.695V50.5c19.88-.71 36.21-13.135 42.245-29.82 6.035 16.685 22.72 29.11 42.245 29.82z" fill="#F5F5F5"/></g></svg>