<svg preserveAspectRatio="none" width="1920" height="600" viewBox="0 0 1920 600" fill="none" xmlns="http://www.w3.org/2000/svg">
<rect width="1920" height="600" fill="#FFC84C"/>
<mask id="mask0" mask-type="alpha" maskUnits="userSpaceOnUse" x="0" y="0" width="1920" height="600">
<rect width="1920" height="600" fill="white"/>
</mask>
<g mask="url(#mask0)">
<rect opacity="0.300107" y="201" width="1920" height="399" fill="url(#paint0_linear)"/>
<g opacity="0.750674">
<rect opacity="0.497419" width="30" height="300" transform="matrix(-1 0 0 1 1920 154)" fill="url(#paint1_linear)"/>
<rect opacity="0.497419" width="30" height="300" transform="matrix(-1 0 0 1 1832 4)" fill="url(#paint2_linear)"/>
<rect opacity="0.497419" width="60" height="300" transform="matrix(-1 0 0 1 1767 304)" fill="url(#paint3_linear)"/>
</g>
<g opacity="0.750674">
<rect opacity="0.497419" x="375" y="3" width="30" height="95" fill="url(#paint4_linear)"/>
<rect opacity="0.497419" x="825" y="153" width="30" height="95" fill="url(#paint5_linear)"/>
<rect opacity="0.497419" x="746" y="3" width="30" height="239" fill="url(#paint6_linear)"/>
<rect opacity="0.497419" x="1475" y="57" width="30" height="100" fill="url(#paint7_linear)"/>
</g>
<g opacity="0.750674">
<rect opacity="0.497419" x="1145" y="499" width="30" height="100" fill="url(#paint8_linear)"/>
</g>
</g>
<defs>
<linearGradient id="paint0_linear" x1="1920" y1="600" x2="1920" y2="201" gradientUnits="userSpaceOnUse">
<stop stop-color="#FFE683"/>
<stop offset="1" stop-color="#FFC84C"/>
</linearGradient>
<linearGradient id="paint1_linear" x1="30" y1="300" x2="30" y2="0" gradientUnits="userSpaceOnUse">
<stop stop-color="#FFE683"/>
<stop offset="1" stop-color="#FFC84C"/>
</linearGradient>
<linearGradient id="paint2_linear" x1="30" y1="300" x2="30" y2="0" gradientUnits="userSpaceOnUse">
<stop stop-color="#FFE683"/>
<stop offset="1" stop-color="#FFC84C"/>
</linearGradient>
<linearGradient id="paint3_linear" x1="60" y1="300" x2="60" y2="0" gradientUnits="userSpaceOnUse">
<stop stop-color="#FFE683"/>
<stop offset="1" stop-color="#FFC84C"/>
</linearGradient>
<linearGradient id="paint4_linear" x1="405" y1="98" x2="405" y2="3" gradientUnits="userSpaceOnUse">
<stop stop-color="#FFE683"/>
<stop offset="1" stop-color="#FFC84C"/>
</linearGradient>
<linearGradient id="paint5_linear" x1="855" y1="248" x2="855" y2="153" gradientUnits="userSpaceOnUse">
<stop stop-color="#FFE683"/>
<stop offset="1" stop-color="#FFC84C"/>
</linearGradient>
<linearGradient id="paint6_linear" x1="776" y1="242" x2="776" y2="3" gradientUnits="userSpaceOnUse">
<stop stop-color="#FFE683"/>
<stop offset="1" stop-color="#FFC84C"/>
</linearGradient>
<linearGradient id="paint7_linear" x1="1505" y1="157" x2="1505" y2="57" gradientUnits="userSpaceOnUse">
<stop stop-color="#FFE683"/>
<stop offset="1" stop-color="#FFC84C"/>
</linearGradient>
<linearGradient id="paint8_linear" x1="1175" y1="599" x2="1175" y2="499" gradientUnits="userSpaceOnUse">
<stop stop-color="#FFE683"/>
<stop offset="1" stop-color="#FFC84C" stop-opacity="0.01"/>
</linearGradient>
</defs>
</svg>
