<svg width="30" height="30" viewBox="0 0 30 30" fill="none" xmlns="http://www.w3.org/2000/svg">
<g id="bars-graphic">
<path id="Shape" fill-rule="evenodd" clip-rule="evenodd" d="M2.92305 10.4874H4.66805C5.21461 10.4874 5.62683 10.1033 5.62683 9.59381V9.49127C5.62683 8.95157 5.18784 8.49541 4.66805 8.49541H3.59436C2.71408 8.49541 1.88828 8.1601 1.26915 7.55104C0.643158 6.93512 0.298462 6.10863 0.298462 5.22354V5.13863C0.298462 4.25308 0.643845 3.42728 1.27144 2.81319C1.70219 2.39159 2.23343 2.10251 2.81342 1.96564V1.17188C2.81342 0.524597 3.33801 0 3.98529 0C4.63234 0 5.15694 0.524597 5.15694 1.17188V1.92535C6.52336 2.17644 7.56042 3.34808 7.56042 4.7525C7.56042 5.39978 7.03583 5.92438 6.38855 5.92438C5.7415 5.92438 5.21667 5.39978 5.21667 4.7525C5.21667 4.41811 4.90814 4.21852 4.60968 4.21852H3.59436C3.05145 4.21852 2.64198 4.61403 2.64198 5.13863V5.22354C2.64198 5.74425 3.06038 6.15189 3.59436 6.15189H4.66805C6.48903 6.15189 7.97058 7.64992 7.97058 9.49127V9.59381C7.97058 11.2459 6.76895 12.5716 5.15694 12.7968V13.4754C5.15694 14.1227 4.63234 14.6473 3.98529 14.6473C3.33801 14.6473 2.81342 14.1227 2.81342 13.4754V12.8284C1.22726 12.7737 0 11.5338 0 9.96025C0 9.31297 0.524597 8.78838 1.17188 8.78838C1.81892 8.78838 2.34352 9.31297 2.34352 9.96025C2.34352 10.3063 2.63512 10.4874 2.92305 10.4874ZM27.6565 2.92946V23.5529C27.6565 24.2001 28.1811 24.7247 28.8281 24.7247C29.4754 24.7247 30 24.2001 30 23.5529V2.92946C30 1.31424 28.6858 0 27.0705 0H24.4926C22.8774 0 21.5632 1.31424 21.5632 2.92946V27.6542H13.1264V12.3038C13.1264 11.9806 13.3891 11.7178 13.7123 11.7178H16.2902C16.6132 11.7178 16.8759 11.9806 16.8759 12.3038V23.5529C16.8759 24.2001 17.4007 24.7247 18.0478 24.7247C18.6951 24.7247 19.2197 24.2001 19.2197 23.5529V12.3038C19.2197 10.6883 17.9054 9.37431 16.2902 9.37431H13.7123C12.0969 9.37431 10.7829 10.6883 10.7829 12.3038V27.6542H2.34581V20.4476C2.34581 20.1247 2.6088 19.8617 2.93175 19.8617H5.50964C5.83282 19.8617 6.09558 20.1247 6.09558 20.4476V23.5529C6.09558 24.2001 6.62018 24.7247 7.26746 24.7247C7.91451 24.7247 8.4391 24.2001 8.4391 23.5529V20.4476C8.4391 18.8324 7.12509 17.5182 5.50964 17.5182H2.93175C1.31653 17.5182 0.00228882 18.8324 0.00228882 20.4476V28.8258C0.00228882 29.4731 0.526886 29.9977 1.17416 29.9977H28.8281C29.4754 29.9977 30 29.4731 30 28.8258C30 28.1788 29.4754 27.6542 28.8281 27.6542H23.9067V2.92946C23.9067 2.60651 24.1695 2.34352 24.4926 2.34352H27.0705C27.3935 2.34352 27.6565 2.60651 27.6565 2.92946Z" fill="#ECB841"/>
</g>
</svg>
