<svg width="30" height="30" viewBox="0 0 30 30" fill="none" xmlns="http://www.w3.org/2000/svg">
<g id="wallet">
<path id="Shape" fill-rule="evenodd" clip-rule="evenodd" d="M20.2148 18.5743C20.2148 16.6358 21.792 15.0587 23.7305 15.0587H27.6562V11.7188C27.6562 10.4264 26.6048 9.37504 25.3125 9.37504H3.51562C3.10488 9.37504 2.71049 9.30409 2.34375 9.17401V25.3125C2.34375 26.6049 3.39516 27.6563 4.6875 27.6563H25.3125C26.3233 27.6563 27.217 27.0128 27.5365 26.055C27.7413 25.441 28.4051 25.1094 29.019 25.3142C29.633 25.519 29.9647 26.1827 29.7598 26.7967C29.1207 28.7127 27.3334 30 25.3125 30H4.6875C2.10281 30 0 27.8972 0 25.3125V5.91801V5.85942V5.56645C0 5.40186 0.0342188 5.24541 0.0955078 5.10326C0.464004 3.55633 1.85754 2.40239 3.51562 2.40239H5.68359C6.33082 2.40239 6.85547 2.92703 6.85547 3.57426C6.85547 4.22149 6.33082 4.74614 5.68359 4.74614H3.51562C2.87924 4.74614 2.35969 5.25602 2.3441 5.88871C2.35969 6.52141 2.87924 7.03129 3.51562 7.03129H5.27982L16.5689 0.170433C16.8366 0.00777672 17.1585 -0.0410319 17.4623 0.03514C17.7663 0.111312 18.027 0.30596 18.1864 0.575726L19.5123 2.81951L22.4524 0.996312C22.7179 0.831663 23.038 0.779808 23.3419 0.852347C23.6457 0.924769 23.9081 1.11555 24.0706 1.38227L28.0573 7.9225C29.2332 8.77498 30 10.1587 30 11.7188V20.918C30 21.5652 29.4754 22.0899 28.8281 22.0899C28.8153 22.0899 28.8026 22.089 28.7899 22.0882L28.7698 22.087L28.7502 22.0882L28.7357 22.0891C28.7275 22.0896 28.7193 22.0899 28.7109 22.0899H23.7305C21.792 22.0899 20.2148 20.5128 20.2148 18.5743ZM23.7305 19.7461H27.6562V17.4024H23.7305C23.0843 17.4024 22.5586 17.9281 22.5586 18.5743C22.5586 19.2205 23.0843 19.7462 23.7305 19.7461ZM9.79266 7.03135L16.7723 2.78957L18.0202 4.90135C18.0441 4.95907 18.0717 5.01596 18.1056 5.0708C18.1311 5.11188 18.1594 5.15014 18.1888 5.18694L19.2787 7.03135H9.79266ZM20.7049 4.83778L22.0011 7.03129H24.7692L22.684 3.61053L20.7049 4.83778Z" fill="#ECB841"/>
</g>
</svg>
