<svg width="30" height="30" viewBox="0 0 30 30" fill="none" xmlns="http://www.w3.org/2000/svg">
<g id="meeting">
<path id="Shape" fill-rule="evenodd" clip-rule="evenodd" d="M30 10.2839V3.54858C30 1.59187 28.4081 0 26.4514 0H21.2109C20.5637 0 20.0391 0.524597 20.0391 1.17188C20.0391 1.81915 20.5637 2.34375 21.2109 2.34375H26.4514C27.1159 2.34375 27.6562 2.88414 27.6562 3.54858V10.2839C27.6562 10.9481 27.1159 11.4885 26.4514 11.4885C24.9825 11.4885 23.771 12.6114 23.6298 14.0437L22.5538 12.9284L22.5465 12.921L22.5391 12.9135C22.1555 12.5299 21.703 12.1365 20.9949 11.8584C20.3925 11.6217 19.7122 11.9183 19.4758 12.5208C19.2391 13.1232 19.5355 13.8034 20.1379 14.0398C20.4014 14.1435 20.5813 14.2712 20.8747 14.5638L23.1324 16.9038L23.1392 16.9108L23.147 16.9187C23.4629 17.2348 23.8824 17.4021 24.3105 17.4021C24.5229 17.4021 24.7375 17.3609 24.9426 17.276C25.5604 17.0201 25.9598 16.4225 25.9598 15.7537V14.3241C25.9598 14.0531 26.1802 13.8325 26.4514 13.8325C28.4081 13.8325 30 12.2406 30 10.2839ZM10.0781 7.08984C10.0781 7.73712 9.55353 8.26172 8.90625 8.26172C8.25897 8.26172 7.73438 7.73712 7.73438 7.08984C7.73438 6.44257 8.25897 5.91797 8.90625 5.91797C9.55353 5.91797 10.0781 6.44257 10.0781 7.08984ZM13.0078 8.26172C13.6551 8.26172 14.1797 7.73712 14.1797 7.08984C14.1797 6.44257 13.6551 5.91797 13.0078 5.91797C12.3605 5.91797 11.8359 6.44257 11.8359 7.08984C11.8359 7.73712 12.3605 8.26172 13.0078 8.26172ZM6.03516 7.08984C6.03516 7.73712 5.51056 8.26172 4.86328 8.26172C4.216 8.26172 3.69141 7.73712 3.69141 7.08984C3.69141 6.44257 4.216 5.91797 4.86328 5.91797C5.51056 5.91797 6.03516 6.44257 6.03516 7.08984ZM30 28.3141V28.8281C30 29.4754 29.4754 30 28.8281 30C28.1808 30 27.6562 29.4754 27.6562 28.8281V28.3141C27.6562 28.0788 27.559 27.857 27.3891 27.7055C26.7945 27.1751 25.7634 26.543 24.2285 26.543C22.6936 26.543 21.6625 27.1751 21.0679 27.7055C20.8981 27.857 20.8008 28.0788 20.8008 28.3141V28.8281C20.8008 29.4754 20.2762 30 19.6289 30C18.9816 30 18.457 29.4754 18.457 28.8281V28.3141C18.457 28.0801 18.3591 27.8593 18.1886 27.708C17.5889 27.1765 16.5488 26.543 15 26.543C13.4512 26.543 12.4111 27.1765 11.8117 27.708C11.6409 27.8593 11.543 28.0801 11.543 28.3141V28.8281C11.543 29.4754 11.0184 30 10.3711 30C9.72382 30 9.19922 29.4754 9.19922 28.8281V28.3141C9.19922 28.0788 9.10194 27.857 8.93211 27.7055C8.33748 27.1751 7.30637 26.543 5.77148 26.543C4.2366 26.543 3.20549 27.1751 2.61086 27.7055C2.44102 27.857 2.34375 28.0788 2.34375 28.3141V28.8281C2.34375 29.4754 1.81915 30 1.17188 30C0.524597 30 0 29.4754 0 28.8281V28.3141C0 27.4113 0.382919 26.5519 1.05103 25.9563C1.4875 25.567 2.07756 25.1418 2.82921 24.8069C2.52113 24.2844 2.34375 23.6765 2.34375 23.0273C2.34375 21.0887 3.92075 19.5117 5.85938 19.5117C7.798 19.5117 9.375 21.0887 9.375 23.0273C9.375 23.7028 9.1832 24.334 8.85178 24.8701C9.47388 25.164 9.97948 25.5176 10.3734 25.8531C10.7865 25.5034 11.3214 25.1335 11.9845 24.8323C11.6673 24.3045 11.4844 23.687 11.4844 23.0273C11.4844 21.0887 13.0614 19.5117 15 19.5117C16.9386 19.5117 18.5156 21.0887 18.5156 23.0273C18.5156 23.687 18.3327 24.3045 18.0155 24.8323C18.6786 25.1335 19.2135 25.5034 19.6266 25.8531C20.0397 25.5013 20.5753 25.1296 21.2395 24.8277C20.9241 24.3006 20.7422 23.6849 20.7422 23.0273C20.7422 21.0887 22.3192 19.5117 24.2578 19.5117C26.1964 19.5117 27.7734 21.0887 27.7734 23.0273C27.7734 23.6936 27.5871 24.3173 27.2639 24.8488C27.9714 25.1768 28.5308 25.583 28.9492 25.9563C29.6171 26.5519 30 27.4111 30 28.3141ZM5.85938 24.1992C5.21324 24.1992 4.6875 23.6735 4.6875 23.0273C4.6875 22.3812 5.21324 21.8555 5.85938 21.8555C6.50551 21.8555 7.03125 22.3812 7.03125 23.0273C7.03125 23.6735 6.50551 24.1992 5.85938 24.1992ZM15 24.1992C15.6461 24.1992 16.1719 23.6735 16.1719 23.0273C16.1719 22.3812 15.6461 21.8555 15 21.8555C14.3539 21.8555 13.8281 22.3812 13.8281 23.0273C13.8281 23.6735 14.3539 24.1992 15 24.1992ZM24.2578 24.1992C23.6117 24.1992 23.0859 23.6735 23.0859 23.0273C23.0859 22.3812 23.6117 21.8555 24.2578 21.8555C24.9039 21.8555 25.4297 22.3812 25.4297 23.0273C25.4297 23.6735 24.9039 24.1992 24.2578 24.1992ZM0 10.2839V3.54858C0 1.59187 1.59187 0 3.54858 0H14.3225C16.2792 0 17.8711 1.59187 17.8711 3.54858V10.2839C17.8711 12.2406 16.2792 13.8325 14.3225 13.8325H10.901C10.2308 13.8325 9.60045 14.0923 9.12506 14.564L6.8676 16.9038L6.85295 16.9189C6.53687 17.2348 6.11732 17.4021 5.68954 17.4023C5.47691 17.4023 5.26245 17.3609 5.05737 17.276C4.43962 17.0201 4.04022 16.4227 4.04022 15.7539V14.3243C4.04022 14.0531 3.81981 13.8325 3.54858 13.8325C1.59187 13.8322 0 12.2404 0 10.2839ZM3.54858 11.4887C2.88414 11.4887 2.34375 10.9481 2.34375 10.2839V3.54858C2.34375 2.88414 2.88414 2.34375 3.54858 2.34375H14.3225C14.987 2.34375 15.5273 2.88414 15.5273 3.54858V10.2839C15.5273 10.9481 14.987 11.4887 14.3225 11.4887H10.901C9.60136 11.4887 8.37982 11.9948 7.46109 12.9135C7.4594 12.9152 7.45772 12.9169 7.45604 12.9185C7.45271 12.9218 7.44941 12.925 7.44621 12.9284L6.37024 14.0437C6.22902 12.6114 5.01755 11.4887 3.54858 11.4887Z" fill="#ECB841"/>
</g>
</svg>
