<svg width="30" height="29" viewBox="0 0 30 29" fill="none" xmlns="http://www.w3.org/2000/svg">
<g id="home">
<path id="Path" d="M29.6594 13.2664L17.4491 0.97556C17.4335 0.959739 17.4172 0.944388 17.4007 0.929505C16.0674 -0.267624 14.0527 -0.271901 12.7143 0.919603C12.6976 0.934427 12.6814 0.94972 12.6657 0.965423L0.344056 13.2628C-0.11403 13.7201 -0.114792 14.462 0.342415 14.9201C0.799681 15.3782 1.54165 15.3789 1.99968 14.9218L2.92968 13.9936V24.1118C2.92968 26.6965 5.03249 28.7993 7.61718 28.7993H11.8359C12.4832 28.7993 13.0078 28.2746 13.0078 27.6274V18.0766H17.1094V27.6274C17.1094 28.2746 17.634 28.7993 18.2812 28.7993H22.3828C24.9675 28.7993 27.0703 26.6965 27.0703 24.1118C27.0703 23.4645 26.5457 22.9399 25.8984 22.9399C25.2512 22.9399 24.7266 23.4645 24.7266 24.1118C24.7266 25.4041 23.6751 26.4555 22.3828 26.4555H19.4531V16.9047C19.4531 16.2575 18.9285 15.7329 18.2812 15.7329H11.8359C11.1887 15.7329 10.6641 16.2575 10.6641 16.9047V26.4555H7.61718C6.32484 26.4555 5.27343 25.4041 5.27343 24.1118V11.6899C5.27343 11.6782 5.27325 11.6665 5.2729 11.6549L14.2937 2.65193C14.7327 2.27909 15.3767 2.2805 15.814 2.65515L24.7266 11.6264V18.2524C24.7266 18.8996 25.2512 19.4243 25.8984 19.4243C26.5457 19.4243 27.0703 18.8996 27.0703 18.2524V13.9856L27.9968 14.9182C28.2258 15.1488 28.5269 15.2642 28.8281 15.2642C29.1268 15.2642 29.4255 15.1507 29.6541 14.9236C30.1132 14.4675 30.1157 13.7255 29.6594 13.2664Z" fill="#ECB841"/>
</g>
</svg>
