<svg width="24" height="30" viewBox="0 0 24 30" fill="none" xmlns="http://www.w3.org/2000/svg">
<g id="resume">
<path id="Shape" fill-rule="evenodd" clip-rule="evenodd" d="M16.4674 29.5959L23.4247 22.645C23.4526 22.6169 23.4793 22.5874 23.5047 22.5571C23.5075 22.5535 23.5102 22.5498 23.5129 22.5462L23.5159 22.5419C23.5189 22.5376 23.522 22.5334 23.5252 22.5292L23.5294 22.5238C23.5442 22.5046 23.5592 22.4853 23.5727 22.465C23.5814 22.4515 23.5892 22.4378 23.5974 22.4241L23.6027 22.4155L23.6027 22.4155C23.6126 22.3994 23.6225 22.3834 23.6315 22.3665C23.6368 22.3566 23.6415 22.3463 23.6463 22.3361L23.6463 22.3361L23.6522 22.3234L23.6588 22.3097C23.6663 22.2942 23.6738 22.2787 23.6803 22.2628C23.686 22.2489 23.6906 22.235 23.6956 22.221L23.7004 22.208L23.7005 22.2079C23.7069 22.1903 23.7135 22.1726 23.7189 22.1545C23.7228 22.1413 23.7256 22.1278 23.7292 22.1146L23.7317 22.105C23.7371 22.0847 23.7424 22.0645 23.7466 22.0435L23.7487 22.0313L23.7506 22.018L23.753 22.0013L23.7558 21.9836C23.7587 21.966 23.7615 21.9484 23.7633 21.9304C23.7637 21.9263 23.764 21.9221 23.7643 21.918C23.7646 21.9137 23.7648 21.9094 23.765 21.9051L23.7658 21.8846L23.7658 21.8845L23.7665 21.8672L23.7669 21.859L23.7676 21.8478C23.7683 21.8374 23.769 21.827 23.769 21.8165C23.769 21.81 23.7687 21.8036 23.7684 21.7973L23.7676 21.784V21.784L23.7669 21.7731L23.7665 21.7641L23.7658 21.7475L23.7658 21.7474L23.7658 21.7473L23.7658 21.7472C23.7653 21.7324 23.7648 21.7176 23.7633 21.7027C23.7614 21.6837 23.7584 21.665 23.7554 21.6464L23.7532 21.633L23.7508 21.6166C23.7495 21.6076 23.7483 21.5986 23.7466 21.5896C23.7427 21.5694 23.7375 21.5496 23.7322 21.5296L23.7295 21.5193L23.7265 21.5071L23.7241 21.4975C23.7225 21.4912 23.7209 21.4849 23.7189 21.4786C23.7126 21.4572 23.7048 21.4364 23.697 21.4155L23.6959 21.4126C23.6908 21.3986 23.6863 21.3845 23.6806 21.3705C23.6735 21.3539 23.6657 21.3377 23.6579 21.3214L23.6579 21.3213L23.6525 21.31L23.6462 21.2965C23.6415 21.2865 23.6369 21.2765 23.6317 21.2666C23.6219 21.2487 23.6114 21.2316 23.6007 21.2143L23.5976 21.2093L23.5885 21.194C23.5834 21.1853 23.5783 21.1767 23.5727 21.1684C23.5604 21.1497 23.5468 21.1319 23.5333 21.1141L23.5266 21.1053L23.5219 21.0991L23.5164 21.0917C23.5126 21.0865 23.5089 21.0813 23.5049 21.0763C23.4556 21.016 23.4003 20.9607 23.34 20.9114L23.3346 20.9071L23.3299 20.9035L23.3215 20.8974L23.3143 20.8922L23.3087 20.8879L23.2995 20.8809C23.2827 20.8681 23.2657 20.8552 23.2481 20.8435C23.2378 20.8366 23.2273 20.8303 23.2167 20.8241L23.2029 20.8159L23.187 20.8063C23.1749 20.7989 23.1627 20.7915 23.1501 20.7846C23.1476 20.7833 23.145 20.7819 23.1424 20.7806C23.1397 20.7793 23.137 20.778 23.1344 20.7767L23.1249 20.7722L23.1127 20.7666L23.1008 20.7611C23.083 20.7524 23.0652 20.7435 23.0466 20.7357C23.0345 20.7306 23.022 20.7263 23.0096 20.722L22.9966 20.7174L22.9823 20.7123C22.9679 20.707 22.9536 20.7018 22.9388 20.6973C22.9264 20.6934 22.9138 20.6904 22.9012 20.6874L22.8867 20.6839L22.8724 20.6801C22.8577 20.6763 22.843 20.6724 22.828 20.6695C22.811 20.666 22.7941 20.6637 22.7771 20.6614L22.7643 20.6597L22.7464 20.6569L22.7463 20.6569L22.7463 20.6569C22.736 20.6552 22.7257 20.6536 22.7152 20.6526C22.6764 20.6487 22.6375 20.6466 22.5987 20.6466H18.5643C16.3071 20.6466 14.4707 22.483 14.4707 24.7402V27.5996L4.7077 27.6025C3.41794 27.6025 2.3685 26.5531 2.3685 25.2633V4.6784C2.3685 3.38864 3.41794 2.3392 4.7077 2.3392H19.0874C20.3771 2.3392 21.4266 3.38864 21.4266 4.67863L21.4279 15.9653C21.4279 16.6111 21.9515 17.1346 22.5975 17.1346C23.2436 17.1346 23.7671 16.6108 23.7671 15.9648L23.7658 4.6784C23.7658 2.09865 21.6669 0 19.0874 0H4.7077C2.12795 0 0.0292969 2.09865 0.0292969 4.6784V25.2633C0.0292969 27.8431 2.12795 29.9417 4.70815 29.9417L15.6405 29.9386C15.6795 29.9386 15.7184 29.9365 15.757 29.9326C15.7874 29.9294 15.8171 29.9244 15.8465 29.9191L15.8566 29.9176C15.8612 29.917 15.8658 29.9164 15.8703 29.9155C15.905 29.9086 15.939 29.8997 15.9729 29.8899C15.9746 29.8893 15.9764 29.8888 15.9783 29.8884L15.9809 29.8878C16.0149 29.8773 16.048 29.8652 16.0807 29.852L16.0832 29.8511L16.0861 29.8501L16.0882 29.8492C16.1191 29.8364 16.149 29.8218 16.1785 29.8067L16.1864 29.8028L16.1919 29.8001C16.2189 29.7857 16.2447 29.7697 16.2703 29.7533C16.2734 29.7513 16.2765 29.7494 16.2797 29.7476L16.2797 29.7476C16.2833 29.7455 16.2868 29.7435 16.2902 29.7412C16.3144 29.725 16.3374 29.7071 16.3603 29.6893L16.3635 29.6869L16.3696 29.6824C16.3739 29.6794 16.3781 29.6763 16.3822 29.6729C16.4099 29.6503 16.4364 29.626 16.4619 29.6009L16.464 29.5991L16.4652 29.5979L16.4667 29.5964L16.4672 29.5961L16.4672 29.5959L16.4674 29.5959ZM12.8337 20.9326L5.87775 20.9358H5.8773C5.2315 20.9358 4.70792 20.4127 4.7077 19.7669C4.70724 19.1209 5.23082 18.5969 5.87661 18.5966L12.8325 18.5934H12.833C13.4788 18.5934 14.0024 19.1166 14.0026 19.7624C14.003 20.4084 13.4797 20.9322 12.8337 20.9326ZM11.2536 22.8625L5.87661 22.8657C5.23059 22.8661 4.70724 23.3902 4.7077 24.036C4.70815 24.6817 5.23173 25.2049 5.8773 25.2049H5.87798L11.2549 25.2017C11.901 25.2012 12.4243 24.6772 12.4239 24.0314C12.4234 23.3856 11.8998 22.8625 11.2543 22.8625H11.2536ZM16.8099 24.7402V25.9471L19.7736 22.9858H18.5643C17.5968 22.9858 16.8099 23.773 16.8099 24.7402ZM8.1105 16.3744H15.574C16.1599 16.3744 16.708 16.1137 17.0778 15.6592C17.4492 15.2025 17.5936 14.6097 17.4737 14.0325C17.1415 12.4341 16.1476 11.1021 14.8172 10.2984C15.2626 9.6894 15.5265 8.93944 15.5265 8.12872C15.5265 6.09722 13.8737 4.44448 11.8423 4.44448C9.81076 4.44448 8.15801 6.09722 8.15801 8.12872C8.15801 8.93944 8.42186 9.6894 8.86708 10.2984C7.53689 11.1021 6.54273 12.4341 6.21081 14.0325C6.09088 14.6097 6.23503 15.2025 6.6067 15.6592C6.97654 16.1137 7.52456 16.3744 8.1105 16.3744ZM10.4972 8.12872C10.4972 8.87045 11.1005 9.47376 11.8423 9.47376C12.584 9.47376 13.1873 8.87045 13.1873 8.12872C13.1873 7.38698 12.584 6.78368 11.8423 6.78368C11.1005 6.78368 10.4972 7.38698 10.4972 8.12872ZM11.8729 11.813C13.3008 11.813 14.5668 12.7228 15.0484 14.0352H8.63613C9.11768 12.7228 10.3837 11.813 11.8116 11.813H11.8729Z" fill="#ECB841"/>
</g>
</svg>
