<svg width="30" height="30" viewBox="0 0 30 30" fill="none" xmlns="http://www.w3.org/2000/svg">
<g id="planning">
<path id="Shape" fill-rule="evenodd" clip-rule="evenodd" d="M19.8617 27.6542H4.68704C3.395 27.6542 2.34352 26.6027 2.34352 25.3104V7.03079C2.34352 5.73853 3.395 4.68727 4.68704 4.68727H6.15189V5.85892C6.15189 6.5062 6.67648 7.03079 7.32376 7.03079C7.97081 7.03079 8.49541 6.5062 8.49541 5.85892V4.68727H13.7684V5.85892C13.7684 6.5062 14.293 7.03079 14.9403 7.03079C15.5873 7.03079 16.1121 6.5062 16.1121 5.85892V4.68727H21.4437V5.85892C21.4437 6.5062 21.9683 7.03079 22.6154 7.03079C23.2626 7.03079 23.7872 6.5062 23.7872 5.85892V4.68727H25.3104C26.6027 4.68727 27.6542 5.73853 27.6542 7.03079V12.3038C27.6542 12.9508 28.1788 13.4756 28.8258 13.4756C29.4731 13.4756 29.9977 12.9508 29.9977 12.3038V7.03079C29.9977 4.44626 27.895 2.34352 25.3104 2.34352H23.7872V1.17188C23.7872 0.524597 23.2626 0 22.6154 0C21.9683 0 21.4437 0.524597 21.4437 1.17188V2.34352H16.1121V1.17188C16.1121 0.524597 15.5873 0 14.9403 0C14.293 0 13.7684 0.524597 13.7684 1.17188V2.34352H8.49541V1.17188C8.49541 0.524597 7.97081 0 7.32376 0C6.67648 0 6.15189 0.524597 6.15189 1.17188V2.34352H4.68704C2.10274 2.34352 0 4.44626 0 7.03079V25.3104C0 27.895 2.10274 29.9977 4.68704 29.9977H19.8617C20.509 29.9977 21.0336 29.4731 21.0336 28.8258C21.0336 28.1788 20.509 27.6542 19.8617 27.6542ZM7.32376 13.4756C7.97081 13.4756 8.49541 12.9508 8.49541 12.3038C8.49541 11.6565 7.97081 11.1319 7.32376 11.1319C6.67648 11.1319 6.15189 11.6565 6.15189 12.3038C6.15189 12.9508 6.67648 13.4756 7.32376 13.4756ZM17.5182 11.1319C18.1654 11.1319 18.69 11.6565 18.69 12.3038C18.69 12.9508 18.1654 13.4756 17.5182 13.4756C16.8709 13.4756 16.3463 12.9508 16.3463 12.3038C16.3463 11.6565 16.8709 11.1319 17.5182 11.1319ZM23.7872 12.3038C23.7872 11.6565 23.2626 11.1319 22.6154 11.1319C21.9683 11.1319 21.4437 11.6565 21.4437 12.3038C21.4437 12.9508 21.9683 13.4756 22.6154 13.4756C23.2626 13.4756 23.7872 12.9508 23.7872 12.3038ZM7.32376 16.2293C7.97081 16.2293 8.49541 16.7539 8.49541 17.401C8.49541 18.0482 7.97081 18.5728 7.32376 18.5728C6.67648 18.5728 6.15189 18.0482 6.15189 17.401C6.15189 16.7539 6.67648 16.2293 7.32376 16.2293ZM7.32376 21.3265C6.67648 21.3265 6.15189 21.8511 6.15189 22.4982C6.15189 23.1454 6.67648 23.67 7.32376 23.67C7.97081 23.67 8.49541 23.1454 8.49541 22.4982C8.49541 21.8511 7.97081 21.3265 7.32376 21.3265ZM12.421 16.2293C13.068 16.2293 13.5926 16.7539 13.5926 17.401C13.5926 18.0482 13.068 18.5728 12.421 18.5728C11.7737 18.5728 11.2491 18.0482 11.2491 17.401C11.2491 16.7539 11.7737 16.2293 12.421 16.2293ZM13.5926 12.3038C13.5926 11.6565 13.068 11.1319 12.421 11.1319C11.7737 11.1319 11.2491 11.6565 11.2491 12.3038C11.2491 12.9508 11.7737 13.4756 12.421 13.4756C13.068 13.4756 13.5926 12.9508 13.5926 12.3038ZM11.2491 22.4982C11.2491 21.8511 11.7737 21.3265 12.421 21.3265C13.068 21.3265 13.5926 21.8511 13.5926 22.4982C13.5926 23.1454 13.068 23.67 12.421 23.67C11.7737 23.67 11.2491 23.1454 11.2491 22.4982ZM17.5182 21.3265C16.8709 21.3265 16.3463 21.8511 16.3463 22.4982C16.3463 23.1454 16.8709 23.67 17.5182 23.67C18.1654 23.67 18.69 23.1454 18.69 22.4982C18.69 21.8511 18.1654 21.3265 17.5182 21.3265ZM17.5182 16.2293C18.1654 16.2293 18.69 16.7539 18.69 17.401C18.69 18.0482 18.1654 18.5728 17.5182 18.5728C16.8709 18.5728 16.3463 18.0482 16.3463 17.401C16.3463 16.7539 16.8709 16.2293 17.5182 16.2293ZM26.6975 21.3851C27.5773 21.3851 28.4035 21.7197 29.024 22.3277C29.6535 22.944 30 23.7712 30 24.6568V24.9442C30 26.5963 28.7984 27.9222 27.1866 28.1472V28.8258C27.1866 29.4731 26.662 29.9977 26.0147 29.9977C25.3677 29.9977 24.8431 29.4731 24.8431 28.8258V28.1788C23.2567 28.1239 22.0294 26.8842 22.0294 25.3104C22.0294 24.6634 22.5542 24.1388 23.2013 24.1388C23.8486 24.1388 24.3732 24.6634 24.3732 25.3104C24.3732 25.6567 24.6645 25.8378 24.9525 25.8378H26.6975C27.2443 25.8378 27.6565 25.4537 27.6565 24.9442V24.6568C27.6565 24.1363 27.2353 23.7286 26.6975 23.7286H25.6238C23.8065 23.7286 22.3279 22.2306 22.3279 20.389V19.9617C22.3279 19.0762 22.6735 18.2501 23.3009 17.6363C23.7316 17.2147 24.2628 16.9256 24.8428 16.7887V15.9949C24.8428 15.3477 25.3674 14.8231 26.0147 14.8231C26.662 14.8231 27.1866 15.3477 27.1866 15.9949V16.7484C28.5528 16.9995 29.5898 18.1714 29.5898 19.5756C29.5898 20.2229 29.0652 20.7475 28.4182 20.7475C27.7709 20.7475 27.2463 20.2229 27.2463 19.5756C27.2463 19.2414 26.9376 19.0416 26.6391 19.0416H25.6238C25.0809 19.0416 24.6714 19.4371 24.6714 19.9617V20.389C24.6714 20.929 25.1077 21.3851 25.6238 21.3851H26.6975Z" fill="#ECB841"/>
</g>
</svg>
