<svg width="30" height="25" viewBox="0 0 30 25" fill="none" xmlns="http://www.w3.org/2000/svg">
<g id="bus">
<path id="Shape" fill-rule="evenodd" clip-rule="evenodd" d="M18.9651 11.4228L20.6692 13.1268C21.5744 14.0323 22.7785 14.531 24.0589 14.531H28.8281C29.4754 14.531 30 14.0062 30 13.3591V13.0039C30 11.8861 29.7865 10.7945 29.3655 9.75906L26.586 2.92305C25.8643 1.1483 24.1599 0.00137329 22.2439 0.00114441L4.68796 0H4.6875C3.43552 0 2.25838 0.487518 1.37306 1.37283C0.487518 2.25815 0 3.43529 0 4.6875V17.7596C0 20.3133 2.05307 22.3952 4.59526 22.4446C5.07843 23.8099 6.38145 24.7909 7.91016 24.7909C9.43771 24.7909 10.7405 23.811 11.2241 22.4471H18.4829C18.9665 23.811 20.2691 24.7909 21.7969 24.7909C23.3247 24.7909 24.6272 23.811 25.1109 22.4471H25.3125C27.537 22.4471 29.4695 20.866 29.908 18.688C30.0355 18.0533 29.6246 17.4355 28.9902 17.3078C28.3557 17.1803 27.7377 17.5912 27.6102 18.2256C27.3912 19.3135 26.4249 20.1034 25.3125 20.1034H25.1109C24.6272 18.7392 23.3247 17.7596 21.7969 17.7596C20.2691 17.7596 18.9665 18.7392 18.4829 20.1034H11.2241C10.7405 18.7392 9.43794 17.7596 7.91016 17.7596C6.38329 17.7596 5.08141 18.7383 4.59686 20.1011C3.34648 20.053 2.34375 19.0215 2.34375 17.7596V11.431L18.9651 11.4228ZM18.2783 9.07928L14.707 9.08112V2.34444L18.2783 2.34467V9.07928ZM8.55469 9.08409L12.3633 9.08226V2.34421L8.55469 2.34398V9.08409ZM24.4148 3.80585L27.1944 10.6419C27.3974 11.1411 27.534 11.6583 27.6034 12.1873H24.0589C23.4045 12.1873 22.7891 11.9323 22.3263 11.4695L20.622 9.76524V2.34467L22.2439 2.34489C23.2018 2.34489 24.0539 2.91847 24.4148 3.80585ZM3.0304 3.03017C2.58751 3.47282 2.34375 4.06151 2.34375 4.6875V9.0873L6.21094 9.08546V2.34398L4.68773 2.34375H4.6875C4.06151 2.34375 3.47305 2.58751 3.0304 3.03017ZM21.7969 20.1034C22.443 20.1034 22.9688 20.6289 22.9688 21.2753C22.9688 21.9214 22.443 22.4471 21.7969 22.4471C21.1507 22.4471 20.625 21.9214 20.625 21.2753C20.625 20.6289 21.1507 20.1034 21.7969 20.1034ZM9.08203 21.2753C9.08203 20.6289 8.55629 20.1034 7.91016 20.1034C7.26402 20.1034 6.73828 20.6289 6.73828 21.2753C6.73828 21.9214 7.26402 22.4471 7.91016 22.4471C8.55629 22.4471 9.08203 21.9214 9.08203 21.2753Z" fill="#ECB841"/>
</g>
</svg>
