<svg width="30" height="30" viewBox="0 0 30 30" fill="none" xmlns="http://www.w3.org/2000/svg">
<g id="dollar">
<path id="Combined Shape" fill-rule="evenodd" clip-rule="evenodd" d="M27.6653 3.8814C27.6653 3.23672 28.1879 2.71409 28.8326 2.71409C29.4774 2.71409 29.9999 3.23672 29.9999 3.8814V7.25637C30.0039 8.20497 29.6408 9.09532 28.9775 9.75854C28.3292 10.4068 27.4641 10.7634 26.5405 10.7634H26.5292L23.1146 10.7686H23.1127C22.4689 10.7686 21.9464 10.2471 21.9454 9.60304C21.9445 8.9583 22.4664 8.43497 23.111 8.43398L25.7792 8.42994C23.5108 4.70602 19.4146 2.36398 14.9999 2.36398C14.9624 2.36398 14.9244 2.36222 14.8862 2.35824L14.8761 2.35706L14.869 2.3562C14.8385 2.35281 14.8076 2.34819 14.7772 2.34216C14.6489 2.31731 14.5284 2.27117 14.4188 2.20801C14.4 2.19725 14.3813 2.18602 14.3632 2.17421C14.3529 2.16754 14.3427 2.1607 14.3326 2.15362C14.31 2.13801 14.288 2.12164 14.267 2.10462L14.2506 2.09105L14.2505 2.09099L14.2475 2.08848C14.2243 2.06906 14.2017 2.04854 14.1803 2.02737L14.1692 2.01631C14.1482 1.99497 14.1277 1.97257 14.1084 1.94941C14.1028 1.94275 14.0971 1.93596 14.0916 1.92906C14.0747 1.90807 14.0583 1.88614 14.0427 1.86368C14.0361 1.85403 14.0295 1.84438 14.023 1.8345C14.0109 1.8159 13.9994 1.79678 13.9884 1.77743C13.9254 1.66795 13.8793 1.54766 13.8545 1.41953C13.8486 1.38965 13.8442 1.35918 13.8406 1.32906L13.8396 1.32098L13.8384 1.31134C13.8344 1.27292 13.8326 1.2345 13.8326 1.19667C13.8326 1.15883 13.8344 1.12041 13.8385 1.08181L13.8397 1.07255L13.8408 1.06433C13.8443 1.03415 13.8487 1.00357 13.8546 0.973507C13.8795 0.845496 13.9255 0.72532 13.9884 0.615964C13.9995 0.596607 14.011 0.577425 14.0231 0.558771C14.0295 0.548946 14.036 0.539355 14.0427 0.529765C14.0585 0.507075 14.075 0.484911 14.0921 0.463741L14.1082 0.444385C14.1278 0.420817 14.1485 0.398069 14.1699 0.37649L14.1798 0.366548C14.2014 0.345203 14.2242 0.324443 14.2477 0.304852C14.284 0.274151 14.3222 0.245847 14.3621 0.219765C14.3808 0.207601 14.3999 0.196081 14.4193 0.185028C14.5284 0.122221 14.6483 0.0761975 14.776 0.0513437C14.8068 0.0452033 14.8382 0.0404665 14.8692 0.0370747C14.9123 0.0322793 14.9557 0.0292969 15 0.0292969C17.895 0.0292969 20.7034 0.858595 23.1219 2.42754C24.9636 3.62234 26.5103 5.19661 27.6653 7.03924V3.8814ZM11.103 2.97731C10.9833 3.01643 10.8619 3.0345 10.7423 3.0345C10.2502 3.0345 9.79268 2.72111 9.63215 2.22789C9.43315 1.61444 9.76876 0.95608 10.3822 0.757075C10.995 0.558069 11.6534 0.893683 11.853 1.50649C12.052 2.11994 11.7164 2.7783 11.103 2.97731ZM7.5911 4.76971C7.38332 4.92029 7.14286 4.99327 6.90473 4.99327C6.54403 4.99327 6.18859 4.8269 5.9604 4.51292C5.58099 3.99117 5.69596 3.26158 6.21718 2.88222C6.73835 2.50281 7.46853 2.61778 7.84789 3.139C8.2273 3.66017 8.11233 4.39035 7.59052 4.76971H7.5911ZM3.16935 7.81637C3.37654 7.96754 3.61701 8.03994 3.85572 8.03994C4.21642 8.03994 4.57186 7.87362 4.80005 7.55959C5.17941 7.03836 5.06444 6.30824 4.54327 5.92889C4.02204 5.54953 3.29192 5.6645 2.91256 6.18567C2.53315 6.7069 2.64812 7.43702 3.16935 7.81637ZM1.53689 11.8197C1.65654 11.8588 1.77794 11.8775 1.89759 11.8775C2.38964 11.8775 2.84718 11.5641 3.00771 11.0709C3.20672 10.4574 2.87175 9.79912 2.25829 9.59947C1.64549 9.40047 0.986541 9.73602 0.787476 10.3489C0.587827 10.9623 0.923441 11.6206 1.53689 11.8197ZM0.0812189 15.1991C0.0888212 15.2364 0.0981195 15.2732 0.109231 15.3099C0.120342 15.3461 0.133149 15.3823 0.147769 15.4173C0.162388 15.4523 0.178704 15.4874 0.196774 15.5206C0.21426 15.5539 0.234143 15.5872 0.255137 15.6187C0.276131 15.6508 0.298938 15.6818 0.323441 15.7109C0.347359 15.7407 0.373617 15.7693 0.400459 15.7961C0.427301 15.823 0.455897 15.8492 0.485663 15.8732C0.514845 15.8971 0.54578 15.9204 0.577886 15.9415C0.609406 15.9625 0.642681 15.9823 0.675956 15.9998C0.709231 16.0179 0.74426 16.0343 0.779289 16.0488C0.814318 16.0634 0.850517 16.0763 0.886657 16.0874C0.923441 16.0985 0.96081 16.1078 0.997535 16.1154C1.0349 16.123 1.07338 16.1288 1.11075 16.1323C1.14929 16.1364 1.18777 16.1381 1.22572 16.1381C1.26368 16.1381 1.30215 16.1364 1.34069 16.1323C1.37806 16.1288 1.41654 16.1229 1.45391 16.1154C1.49128 16.1078 1.52806 16.0985 1.56479 16.0874C1.60099 16.0763 1.63718 16.0634 1.67215 16.0488C1.70718 16.0342 1.74221 16.0179 1.77549 15.9998C1.80935 15.9823 1.84204 15.9625 1.87356 15.9415C1.90566 15.9205 1.9366 15.8971 1.96578 15.8732C1.99555 15.8492 2.02414 15.823 2.05098 15.7961C2.07783 15.7693 2.10408 15.7407 2.128 15.7109C2.15192 15.6818 2.17525 15.6508 2.19631 15.6187C2.2173 15.5872 2.23718 15.5539 2.25467 15.5206C2.27274 15.4874 2.28911 15.4523 2.30367 15.4173C2.31824 15.3823 2.3311 15.3461 2.34221 15.3099C2.35332 15.2732 2.36262 15.2364 2.37022 15.1991C2.37783 15.1617 2.38368 15.1237 2.38713 15.0858C2.39122 15.0479 2.39297 15.0088 2.39297 14.9709C2.39297 14.9329 2.39122 14.8944 2.38713 14.8559C2.38362 14.8185 2.37777 14.7801 2.37022 14.7427C2.36262 14.7059 2.35332 14.6685 2.34221 14.6318C2.3311 14.5956 2.3183 14.5594 2.30367 14.5244C2.28906 14.4895 2.27274 14.4544 2.25467 14.4211C2.23718 14.3878 2.2173 14.3546 2.19631 14.323C2.17531 14.2909 2.15192 14.26 2.128 14.2308C2.10408 14.2011 2.07783 14.1725 2.05098 14.1456C2.02414 14.1188 1.99555 14.0925 1.96578 14.0686C1.9366 14.0441 1.90566 14.0213 1.87356 14.0003C1.84204 13.9793 1.80935 13.9594 1.77549 13.9419C1.74221 13.9239 1.70718 13.9075 1.67215 13.8929C1.63713 13.8783 1.60093 13.8655 1.56479 13.8544C1.528 13.8433 1.49122 13.834 1.45391 13.8264C1.41654 13.8188 1.37806 13.8129 1.34069 13.8095C1.26426 13.8019 1.18718 13.8019 1.11075 13.8095C1.07338 13.813 1.0349 13.8188 0.997535 13.8264C0.960751 13.834 0.923383 13.8433 0.886657 13.8544C0.850459 13.8655 0.81426 13.8783 0.779289 13.8929C0.74426 13.9075 0.709231 13.9239 0.675956 13.9419C0.642681 13.9594 0.609406 13.9793 0.577886 14.0003C0.54578 14.0213 0.514845 14.0441 0.485663 14.0686C0.455897 14.0925 0.427301 14.1188 0.400459 14.1456C0.373617 14.1725 0.347359 14.2011 0.323441 14.2308C0.298938 14.26 0.27619 14.2909 0.255137 14.323C0.234143 14.3546 0.21426 14.3878 0.196774 14.4211C0.178704 14.4544 0.16233 14.4894 0.147769 14.5244C0.133207 14.5595 0.120342 14.5957 0.109231 14.6318C0.0981195 14.6686 0.0888212 14.706 0.0812189 14.7427C0.0736166 14.7801 0.0677686 14.8185 0.0643183 14.8559C0.0602247 14.8944 0.0584704 14.9329 0.0584704 14.9709C0.0584704 15.0088 0.0602247 15.0479 0.0643183 15.0858C0.0678271 15.1237 0.073675 15.1617 0.0812189 15.1991ZM10.3892 11.6473V11.8641C10.3892 14.1242 12.2175 15.963 14.4648 15.963H15.935C16.8999 15.963 17.6848 16.7456 17.6848 17.7074V18.4695C17.6848 19.4368 16.8998 20.2237 15.935 20.2237H13.5456C12.8786 20.2237 12.3152 19.6357 12.3152 18.9397C12.3152 18.295 11.7926 17.7724 11.1479 17.7724C10.5032 17.7724 9.98058 18.295 9.98058 18.9397C9.98058 20.935 11.5799 22.5584 13.5456 22.5584H13.8327V23.784C13.8327 24.4287 14.3553 24.9513 15 24.9513C15.6447 24.9513 16.1673 24.4287 16.1673 23.784V22.5513C18.3117 22.4302 20.0194 20.646 20.0194 18.4695V17.7074C20.0194 15.4582 18.1871 13.6284 15.9349 13.6284H14.4647C13.5047 13.6284 12.7237 12.837 12.7237 11.8642V11.6474C12.7237 10.68 13.5047 9.8931 14.4647 9.8931H15.855C16.5422 9.8931 17.1012 10.4429 17.1012 11.1188C17.1012 11.7634 17.6238 12.2861 18.2685 12.2861C18.9131 12.2861 19.4358 11.7634 19.4358 11.1188C19.4358 9.26029 17.996 7.73082 16.1673 7.57286V6.21602C16.1673 5.57134 15.6447 5.04871 15 5.04871C14.3553 5.04871 13.8327 5.57134 13.8327 6.21602V7.60778C11.8846 7.91339 10.3892 9.60836 10.3892 11.6473ZM27.0507 18.8708C27.2498 18.258 27.9087 17.9224 28.5215 18.1214C29.135 18.321 29.4706 18.9794 29.2709 19.5928C29.111 20.086 28.6534 20.3994 28.1614 20.3994C28.0417 20.3994 27.9198 20.3808 27.8001 20.3422C27.1867 20.1426 26.8517 19.4843 27.0507 18.8708ZM16.22 28.6326C16.2193 28.626 16.2185 28.6196 16.2177 28.6131C16.2144 28.5834 16.2099 28.5533 16.204 28.5237C16.1792 28.3945 16.1327 28.2733 16.0691 28.163C16.0589 28.1451 16.0483 28.1276 16.0371 28.1104C16.0298 28.099 16.0223 28.0878 16.0146 28.0767C15.9995 28.055 15.9837 28.0339 15.9674 28.0136C15.9613 28.0062 15.9553 27.9988 15.9492 27.9916C15.9304 27.9692 15.9106 27.9474 15.8902 27.9267L15.8768 27.9133C15.8561 27.8929 15.8344 27.8732 15.8121 27.8545C15.8046 27.8481 15.7969 27.8418 15.7893 27.8356C15.7692 27.8194 15.7482 27.8037 15.7267 27.7888C15.7157 27.7812 15.7047 27.7737 15.6936 27.7665C15.6761 27.7552 15.6582 27.7444 15.6401 27.7341C15.5302 27.6707 15.4095 27.6244 15.2808 27.5996C15.2506 27.5936 15.2199 27.589 15.1896 27.5857C15.1464 27.5808 15.1028 27.5778 15.0584 27.5778C10.6437 27.5778 6.54742 25.2358 4.27906 21.5119L6.9473 21.5078C7.59198 21.5068 8.11379 20.9834 8.11286 20.3388C8.11186 19.6947 7.58941 19.1732 6.94555 19.1732H6.94373L3.52911 19.1784H3.51771C2.59414 19.1784 1.72917 19.535 1.08081 20.1833C0.417593 20.8465 0.0544937 21.7368 0.0584119 22.6854V26.0603C0.0584119 26.705 0.581043 27.2276 1.22572 27.2276C1.8704 27.2276 2.39303 26.705 2.39303 26.0603V22.9025C3.548 24.745 5.09479 26.3194 6.93642 27.5141C9.35438 29.0827 12.1622 29.912 15.0565 29.9124L15.0584 29.9125C15.0962 29.9125 15.1346 29.9107 15.173 29.9066C15.1782 29.9061 15.1834 29.9053 15.1886 29.9047C15.2196 29.9013 15.2511 29.8965 15.2819 29.8904C15.4099 29.8656 15.53 29.8195 15.6393 29.7565C15.6582 29.7457 15.6767 29.7346 15.6948 29.7227C15.7053 29.7159 15.7156 29.7089 15.7259 29.7018C15.7482 29.6864 15.77 29.6701 15.7908 29.6533C15.7977 29.6478 15.8044 29.6422 15.8112 29.6365C15.8341 29.6174 15.8562 29.5971 15.8774 29.5763L15.8896 29.564C15.9104 29.543 15.9306 29.5208 15.9496 29.498C15.9554 29.4911 15.9612 29.4842 15.9668 29.4771C15.9834 29.4565 15.9995 29.435 16.0148 29.413C16.0219 29.4027 16.0289 29.3925 16.0357 29.382C16.0478 29.3635 16.0593 29.3443 16.0703 29.325C16.1333 29.2154 16.1791 29.0951 16.2038 28.9668C16.2098 28.9371 16.2143 28.9069 16.2177 28.8767L16.2184 28.8705L16.2199 28.8577C16.2237 28.8209 16.2255 28.7829 16.2255 28.7461L16.2255 28.7451L16.2255 28.744C16.2255 28.7072 16.2239 28.6699 16.22 28.6326ZM26.8891 22.1253C26.3678 21.7459 25.6377 21.8609 25.2584 22.382C24.879 22.9033 24.994 23.6334 25.5151 24.0127C25.7223 24.1633 25.9628 24.2363 26.2009 24.2363C26.5616 24.2363 26.9171 24.0694 27.1458 23.756C27.5253 23.2348 27.4103 22.5046 26.8891 22.1253ZM29.9492 14.6318C29.9603 14.6685 29.9696 14.7058 29.9772 14.7426C29.9848 14.78 29.9906 14.8185 29.9941 14.8558C29.9982 14.8944 29.9999 14.9329 29.9999 14.9708C29.9999 15.0088 29.9982 15.0472 29.9941 15.0858C29.9906 15.1232 29.9848 15.1616 29.9772 15.199C29.9696 15.2357 29.9603 15.2731 29.9492 15.3099C29.9381 15.346 29.9252 15.3822 29.9106 15.4172C29.8961 15.4523 29.8797 15.4873 29.8616 15.5206C29.8441 15.5539 29.8243 15.5871 29.8033 15.6187C29.7822 15.6508 29.7589 15.6817 29.735 15.7109C29.711 15.7406 29.6848 15.7692 29.6579 15.7961C29.6311 15.8229 29.6025 15.8492 29.5727 15.8731C29.5436 15.897 29.5126 15.9204 29.4805 15.9414C29.449 15.9624 29.4157 15.9823 29.3824 15.9998C29.3492 16.0178 29.3141 16.0342 29.2791 16.0488C29.2441 16.0634 29.2079 16.0762 29.1717 16.0873C29.135 16.0984 29.0977 16.1077 29.0609 16.1153C29.0235 16.1229 28.985 16.1287 28.9477 16.1322C28.9091 16.1363 28.8706 16.1381 28.8327 16.1381C28.7947 16.1381 28.7562 16.1363 28.7177 16.1322C28.6803 16.1288 28.6419 16.1229 28.6045 16.1153C28.5678 16.1077 28.5304 16.0984 28.4936 16.0873C28.4575 16.0762 28.4213 16.0633 28.3862 16.0488C28.3512 16.0342 28.3162 16.0178 28.2829 15.9998C28.2496 15.9823 28.2164 15.9624 28.1848 15.9414C28.1527 15.9203 28.1218 15.897 28.0926 15.8731C28.0629 15.8492 28.0343 15.8229 28.0074 15.7961C27.9806 15.7692 27.9543 15.7406 27.9304 15.7109C27.9065 15.6817 27.8831 15.6508 27.8621 15.6187C27.8411 15.5871 27.8212 15.5539 27.8037 15.5206C27.7857 15.4873 27.7693 15.4522 27.7547 15.4172C27.7401 15.3823 27.7273 15.3461 27.7162 15.3099C27.7051 15.2731 27.6958 15.2358 27.6882 15.199C27.6806 15.1616 27.6748 15.1232 27.6713 15.0858C27.6672 15.0472 27.6654 15.0088 27.6654 14.9708C27.6654 14.9329 27.6672 14.8944 27.6713 14.8558C27.6747 14.8185 27.6806 14.78 27.6882 14.7426C27.6958 14.7059 27.7051 14.6685 27.7162 14.6318C27.7273 14.5956 27.7402 14.5594 27.7547 14.5244C27.7693 14.4894 27.7857 14.4543 27.8037 14.4211C27.8212 14.3872 27.8411 14.3545 27.8621 14.323C27.8832 14.2909 27.9065 14.2599 27.9304 14.2308C27.9543 14.201 27.9806 14.1724 28.0074 14.1456C28.0343 14.1187 28.0629 14.0925 28.0926 14.0685C28.1218 14.044 28.1527 14.0212 28.1848 14.0002C28.2164 13.9792 28.2496 13.9594 28.2829 13.9419C28.3162 13.9238 28.3513 13.9075 28.3862 13.8929C28.4212 13.8782 28.4574 13.8654 28.4936 13.8543C28.5304 13.8432 28.5677 13.8339 28.6045 13.8263C28.6419 13.8188 28.6803 13.8129 28.7177 13.8094C28.7941 13.8018 28.8712 13.8018 28.9477 13.8094C28.985 13.8129 29.0235 13.8187 29.0609 13.8263C29.0976 13.8339 29.135 13.8432 29.1717 13.8543C29.2079 13.8654 29.2441 13.8783 29.2791 13.8929C29.3141 13.9074 29.3492 13.9238 29.3824 13.9419C29.4157 13.9594 29.449 13.9792 29.4805 14.0002C29.5126 14.0213 29.5436 14.044 29.5727 14.0685C29.6025 14.0925 29.6311 14.1187 29.6579 14.1456C29.6848 14.1724 29.711 14.201 29.735 14.2308C29.7589 14.2599 29.7823 14.2909 29.8033 14.323C29.8243 14.3545 29.8441 14.3872 29.8616 14.4211C29.8797 14.4543 29.896 14.4894 29.9106 14.5244C29.9253 14.5594 29.9381 14.5956 29.9492 14.6318ZM22.4679 25.1719C21.9461 25.5513 21.8311 26.2815 22.2105 26.8026C22.4393 27.1167 22.7947 27.283 23.1554 27.283C23.3936 27.283 23.634 27.2106 23.8412 27.0594C24.3624 26.6801 24.4774 25.9499 24.0986 25.4287C23.7192 24.9075 22.9891 24.7926 22.4679 25.1719ZM18.2054 28.4351C18.0064 27.8217 18.342 27.1633 18.9554 26.9643C19.5683 26.7653 20.2272 27.1009 20.4262 27.7137C20.6253 28.3272 20.2897 28.9856 19.6762 29.1846C19.5566 29.2237 19.4352 29.2423 19.3155 29.2423C18.8235 29.2418 18.366 28.9284 18.2054 28.4351Z" fill="#ECB841"/>
</g>
</svg>
