<svg width="86" height="86" fill="none" xmlns="http://www.w3.org/2000/svg"><path d="M43 0C19.29 0 0 19.29 0 43s19.29 43 43 43 43-19.29 43-43S66.71 0 43 0zm0 81.351c-10.534 0-20.09-4.27-27.027-11.168a38.56 38.56 0 01-6.954-9.42A38.115 38.115 0 014.649 43C4.649 21.853 21.853 4.649 43 4.649c10.03 0 19.172 3.872 26.013 10.198a38.553 38.553 0 018.588 11.621A38.121 38.121 0 0181.351 43c0 21.147-17.204 38.351-38.351 38.351zm-16.232-1.046l.21.092-.21-.092z" fill="#222235"/><path d="M28.618 38.351a4.649 4.649 0 100-9.297 4.649 4.649 0 000 9.297zm28.764 0a4.649 4.649 0 100-9.297 4.649 4.649 0 000 9.297zm11.06-16.261l-14.721-6.375-1.848 4.265 14.722 6.376 1.847-4.265zm-49.039 4.268l14.722-6.376-1.847-4.265-14.722 6.376 1.847 4.265zm42.845 32.56c.357.632.685 1.29.977 1.953l4.256-1.87a26.74 26.74 0 00-1.184-2.367c-4.945-8.771-14.645-14.104-24.7-13.581-9.99.517-19.049 6.777-23.08 15.948l4.256 1.87c3.33-7.577 10.813-12.748 19.064-13.176 8.305-.43 16.324 3.975 20.411 11.223z" fill="#222235"/></svg>