<svg width="98" height="108" fill="none" xmlns="http://www.w3.org/2000/svg"><path d="M90.857 14.539l1.76 4.951a.8.8 0 00.414.465l4.399 1.982c.621.28.621 1.27 0 1.55l-4.4 1.982a.795.795 0 00-.412.465l-1.761 4.951c-.249.7-1.129.7-1.377 0l-1.761-4.951a.795.795 0 00-.413-.465l-4.399-1.982c-.621-.28-.621-1.27 0-1.55l4.399-1.982a.795.795 0 00.413-.465l1.76-4.951c.25-.7 1.13-.7 1.378 0zM25.04.39l1.307 3.672a.59.59 0 00.306.345l3.263 1.47c.461.208.461.942 0 1.15l-3.263 1.47a.589.589 0 00-.306.345l-1.307 3.673c-.184.519-.837.519-1.021 0l-1.306-3.673a.59.59 0 00-.307-.345l-3.263-1.47c-.46-.208-.46-.942 0-1.15l3.263-1.47a.589.589 0 00.306-.345L24.02.389c.184-.519.837-.519 1.021 0zm53.335 7.668a2.587 2.587 0 11-5.174 0 2.587 2.587 0 015.174 0zM7.748 22.47a3.822 3.822 0 11-7.644 0 3.822 3.822 0 017.644 0zM47.21 108C23.117 108 3.516 88.399 3.516 64.306c0-24.092 19.6-43.693 43.694-43.693 24.093 0 43.693 19.6 43.693 43.693C90.903 88.4 71.303 108 47.21 108zm0-83.145c-21.754 0-39.451 17.698-39.451 39.451 0 21.754 17.697 39.451 39.45 39.451 21.754 0 39.452-17.697 39.452-39.45 0-21.754-17.698-39.452-39.451-39.452z" fill="#222235"/><path d="M37.382 54.525a2.121 2.121 0 01-2.121-2.121 5.91 5.91 0 00-5.904-5.904 5.91 5.91 0 00-5.904 5.904 2.121 2.121 0 01-4.243 0c0-5.595 4.552-10.147 10.147-10.147 5.595 0 10.147 4.552 10.147 10.147 0 1.171-.95 2.121-2.122 2.121zm35.706 0a2.121 2.121 0 01-2.121-2.121 5.91 5.91 0 00-5.904-5.904 5.91 5.91 0 00-5.904 5.904 2.121 2.121 0 01-4.242 0c0-5.595 4.551-10.147 10.146-10.147 5.595 0 10.147 4.552 10.147 10.147 0 1.171-.95 2.121-2.122 2.121zm2.352 8.447H18.98c-1.172 0-2.122.95-2.122 2.121 0 16.736 13.616 30.352 30.352 30.352S77.56 81.83 77.56 65.093a2.12 2.12 0 00-2.12-2.12zM31.096 85.621c2.895-4.64 9.14-7.667 16.114-7.667s13.218 3.027 16.114 7.667a25.979 25.979 0 01-16.114 5.582 25.979 25.979 0 01-16.114-5.582zm35.373-2.92c-3.822-5.47-11.175-8.989-19.26-8.989-8.084 0-15.437 3.519-19.26 8.989a26.022 26.022 0 01-6.764-15.486h52.049A26.013 26.013 0 0166.469 82.7z" fill="#222235"/></svg>