<svg width="16" height="16" viewBox="0 0 16 16" fill="none" xmlns="http://www.w3.org/2000/svg">
<g id="instagram-logo (1)">
<path id="Combined Shape" fill-rule="evenodd" clip-rule="evenodd" d="M11.5206 0H4.39096C1.96979 0 0 1.96988 0 4.39106V11.5207C0 13.9419 1.96979 15.9117 4.39096 15.9117H11.5206C13.9419 15.9117 15.9117 13.9418 15.9117 11.5207V4.39106C15.9118 1.96988 13.9419 0 11.5206 0ZM12.2279 2.65892C11.9559 2.65892 11.6887 2.76904 11.4966 2.96198C11.3035 3.15398 11.1926 3.42127 11.1926 3.69421C11.1926 3.96631 11.3036 4.23351 11.4966 4.42645C11.6886 4.61845 11.9559 4.72951 12.2279 4.72951C12.5008 4.72951 12.7672 4.61845 12.9601 4.42645C13.153 4.23351 13.2632 3.96621 13.2632 3.69421C13.2632 3.42127 13.153 3.15398 12.9601 2.96198C12.7681 2.76904 12.5008 2.65892 12.2279 2.65892ZM7.95586 3.856C5.69506 3.856 3.85581 5.69525 3.85581 7.95605C3.85581 10.2168 5.69506 12.0559 7.95586 12.0559C10.2167 12.0559 12.0559 10.2168 12.0559 7.95605C12.0559 5.69525 10.2167 3.856 7.95586 3.856ZM7.95586 10.644C6.4736 10.644 5.26758 9.43821 5.26758 7.95595C5.26758 6.4736 6.47351 5.26767 7.95586 5.26767C9.43821 5.26767 10.6441 6.4736 10.6441 7.95595C10.6441 9.43821 9.43812 10.644 7.95586 10.644Z" fill="white"/>
</g>
</svg>
