<svg width="21" height="15" viewBox="0 0 21 15" fill="none" xmlns="http://www.w3.org/2000/svg">
<g id="youtube">
<path id="Shape" fill-rule="evenodd" clip-rule="evenodd" d="M19.5834 2.20914L19.5584 2.04612C19.8487 3.62221 20.0001 5.24737 20.0001 6.90829C20.0001 6.97566 20.0001 7.04303 19.9992 7.09959C20.0001 7.16113 20.0001 7.22268 20.0001 7.28339C20.0001 8.94349 19.8487 10.5686 19.5842 11.9809L19.5801 11.9984C19.343 12.8367 18.691 13.4971 17.8468 13.7416C16.274 14.165 10.0287 14.165 10.0287 14.165C10.0287 14.165 3.76512 14.165 2.21065 13.7416L2.19319 13.7375C1.36564 13.4971 0.714411 12.8367 0.473215 11.9809L0.498998 12.1456C-0.112308 8.89441 -0.108149 5.24571 0.473215 2.20914L0.477374 2.19167C0.714411 1.35331 1.36647 0.692932 2.20982 0.44841C3.78175 0.0175848 10.0279 0.0259018 10.0279 0.0259018C10.0279 0.0259018 16.2898 0.0259019 17.846 0.44841L17.8634 0.452569C18.691 0.692932 19.3422 1.35331 19.5834 2.20914ZM8.03012 4.06634V10.132L13.2416 7.10374L8.03012 4.06634Z" fill="white"/>
</g>
</svg>
