<svg width="270" height="215" fill="none" xmlns="http://www.w3.org/2000/svg"><path d="M108.101 247.471a4.058 4.058 0 01-4.052-4.361c.132-1.866 2.682-46.05-49.248-78.007a4.056 4.056 0 01-1.32-5.578 4.058 4.058 0 015.575-1.336c56.324 34.66 53.247 83.472 53.089 85.533a4.063 4.063 0 01-4.044 3.749zm53.797-.006a4.055 4.055 0 01-4.043-3.743c-.158-2.061-3.235-50.873 53.09-85.533a4.057 4.057 0 014.254 6.914c-51.93 31.957-49.38 76.141-49.247 78.007a4.065 4.065 0 01-4.054 4.355zm-26.904.006a4.057 4.057 0 01-4.016-3.511c-.591-4.324-14.133-106.39 12.699-149.857a4.063 4.063 0 015.589-1.322 4.061 4.061 0 011.322 5.588c-25.306 40.993-11.706 143.464-11.566 144.493a4.065 4.065 0 01-4.028 4.609zM24.638 119.726l7.9 9.143 11.136 4.687a2.205 2.205 0 011.03 3.171l-6.253 10.339-1.017 12.039a2.202 2.202 0 01-2.698 1.96l-11.765-2.753-11.764 2.753a2.198 2.198 0 01-1.798-.363 2.209 2.209 0 01-.9-1.597l-1.017-12.039-6.254-10.339a2.198 2.198 0 01.263-2.631 2.19 2.19 0 01.767-.539l11.136-4.688 7.9-9.143a2.213 2.213 0 011.667-.763 2.198 2.198 0 011.667.763zm220.724 0l-7.899 9.143-11.137 4.687a2.21 2.21 0 00-1.24 1.35 2.19 2.19 0 00-.093.934c.036.314.139.617.303.887l6.254 10.339 1.017 12.039a2.214 2.214 0 00.9 1.597 2.194 2.194 0 001.798.363l11.764-2.753 11.765 2.753a2.198 2.198 0 001.797-.363 2.203 2.203 0 00.901-1.597l1.017-12.039 6.254-10.339a2.204 2.204 0 00-1.031-3.171l-11.136-4.687-7.9-9.143a2.2 2.2 0 00-3.334 0zm-61.167-95.581l-18.39 7.359-19.746-1.566a2.202 2.202 0 00-2.372 2.343l1.316 19.764-7.591 18.295a2.212 2.212 0 00.065 1.832 2.201 2.201 0 001.43 1.148l19.203 4.856 15.054 12.873a2.21 2.21 0 001.763.504 2.197 2.197 0 001.534-1.005l10.552-16.762 16.895-10.34a2.207 2.207 0 00.976-2.458 2.197 2.197 0 00-.434-.831L191.769 44.94l-4.613-19.264a2.207 2.207 0 00-1.13-1.443 2.203 2.203 0 00-1.831-.09zm39.78 77.091c6.261 0 11.336-5.075 11.336-11.336 0-6.26-5.075-11.335-11.336-11.335-6.26 0-11.335 5.075-11.335 11.335 0 6.26 5.075 11.336 11.335 11.336zm-4.835 117.971c6.26 0 11.335-5.075 11.335-11.335 0-6.261-5.075-11.336-11.335-11.336-6.261 0-11.336 5.075-11.336 11.336 0 6.26 5.075 11.335 11.336 11.335zm11.335-184.673c6.261 0 11.336-5.075 11.336-11.336 0-6.26-5.075-11.335-11.336-11.335-6.26 0-11.335 5.075-11.335 11.335 0 6.26 5.075 11.336 11.335 11.336zM81.095 144.28c6.26 0 11.336-5.075 11.336-11.336 0-6.26-5.075-11.335-11.336-11.335-6.26 0-11.335 5.075-11.335 11.335 0 6.261 5.075 11.336 11.335 11.336zM77.494 23.198c6.26 0 11.336-5.075 11.336-11.335 0-6.26-5.075-11.336-11.336-11.336-6.26 0-11.335 5.075-11.335 11.336 0 6.26 5.075 11.335 11.335 11.335zm22.667 57.425c6.261 0 11.336-5.075 11.336-11.336 0-6.26-5.075-11.335-11.336-11.335-6.26 0-11.335 5.075-11.335 11.335 0 6.26 5.075 11.336 11.335 11.336zM49.752 63.455l1.43-3.714a10.406 10.406 0 00-4.594-13.057A10.015 10.015 0 0032.7 52.009l-1.636 4.247-3.715-1.43a10.406 10.406 0 00-13.056 4.594 10.016 10.016 0 005.325 13.889l4.247 1.636 16.794 6.469a2.03 2.03 0 002.625-1.165l6.468-16.794zm142.733 81.699a10.062 10.062 0 00-5.572-5.943 10.06 10.06 0 00-8.146.135l-4.101 1.949-1.755-3.73a10.313 10.313 0 00-11.845-5.819 10.072 10.072 0 00-7.43 9.712c0 3.351.788 3.967 10.495 24.613a2.067 2.067 0 002.72.998c6.687-3.116 13.236-6.205 19.908-9.325a10.39 10.39 0 005.726-12.59z" fill="#FFC84C"/></svg>