<svg width="30" height="30" viewBox="0 0 30 30" fill="none" xmlns="http://www.w3.org/2000/svg">
<g id="group">
<path id="Shape" fill-rule="evenodd" clip-rule="evenodd" d="M15 7.03125C16.9386 7.03125 18.5156 5.45425 18.5156 3.51562C18.5156 1.577 16.9386 0 15 0C13.0614 0 11.4844 1.577 11.4844 3.51562C11.4844 5.45425 13.0614 7.03125 15 7.03125ZM15 2.34375C15.6461 2.34375 16.1719 2.86949 16.1719 3.51562C16.1719 4.16176 15.6461 4.6875 15 4.6875C14.3539 4.6875 13.8281 4.16176 13.8281 3.51562C13.8281 2.86949 14.3539 2.34375 15 2.34375ZM19.454 22.1553C20.6822 21.4183 21.4453 20.0706 21.4453 18.6383V13.418C21.4453 11.6526 20.7326 10.2296 19.384 9.30313C18.2808 8.54507 16.7546 8.14453 14.9707 8.14453C13.1868 8.14453 11.6606 8.54507 10.5574 9.30313C9.20883 10.2296 8.49609 11.6526 8.49609 13.418V18.6214C8.49609 20.0684 9.27086 21.4231 10.5183 22.1569L10.6178 22.2155C11.1523 22.5298 11.4844 23.1102 11.4844 23.7305V28.8281C11.4844 29.4754 12.009 30 12.6562 30C13.3035 30 13.8281 29.4754 13.8281 28.8281V23.7305C13.8281 22.2835 13.0534 20.929 11.806 20.1952L11.7064 20.1366C11.172 19.8221 10.8398 19.2416 10.8398 18.6214V13.418C10.8398 10.9966 13.0863 10.4883 14.9707 10.4883C16.8551 10.4883 19.1016 10.9966 19.1016 13.418V18.6383C19.1016 19.2522 18.7745 19.8299 18.2478 20.1457L18.1631 20.1965C16.935 20.9335 16.1719 22.2812 16.1719 23.7135V28.8281C16.1719 29.4754 16.6965 30 17.3438 30C17.991 30 18.5156 29.4754 18.5156 28.8281V23.7135C18.5156 23.0997 18.8427 22.5222 19.3694 22.2061L19.454 22.1553ZM5.85938 9.375C7.798 9.375 9.375 7.798 9.375 5.85938C9.375 3.92075 7.798 2.34375 5.85938 2.34375C3.92075 2.34375 2.34375 3.92075 2.34375 5.85938C2.34375 7.798 3.92075 9.375 5.85938 9.375ZM7.03125 5.85938C7.03125 5.21324 6.50551 4.6875 5.85938 4.6875C5.21324 4.6875 4.6875 5.21324 4.6875 5.85938C4.6875 6.50551 5.21324 7.03125 5.85938 7.03125C6.50551 7.03125 7.03125 6.50551 7.03125 5.85938ZM9.375 24.7266V28.8281C9.375 29.4754 8.8504 30 8.20312 30C7.55585 30 7.03125 29.4754 7.03125 28.8281V24.7266C7.03125 24.0793 7.55585 23.5547 8.20312 23.5547C8.8504 23.5547 9.375 24.0793 9.375 24.7266ZM5.74219 12.8613C6.38947 12.8613 6.91406 12.3367 6.91406 11.6895C6.91406 11.0422 6.38947 10.5176 5.74219 10.5176C4.14001 10.5176 2.84088 10.8275 1.88095 11.4391C0.650482 12.2227 0 13.4745 0 15.0586V20.0391C0 21.3231 0.613403 22.5499 1.64062 23.3203C2.08099 23.6506 2.34375 24.1761 2.34375 24.7266V28.8281C2.34375 29.4754 2.86835 30 3.51562 30C4.1629 30 4.6875 29.4754 4.6875 28.8281V24.7266C4.6875 23.4425 4.0741 22.2157 3.04688 21.4453C2.60651 21.115 2.34375 20.5895 2.34375 20.0391V15.0586C2.34375 14.4576 2.34375 12.8613 5.74219 12.8613ZM24.1406 9.375C26.0793 9.375 27.6562 7.798 27.6562 5.85938C27.6562 3.92075 26.0793 2.34375 24.1406 2.34375C22.202 2.34375 20.625 3.92075 20.625 5.85938C20.625 7.798 22.202 9.375 24.1406 9.375ZM25.3125 5.85938C25.3125 5.21324 24.7868 4.6875 24.1406 4.6875C23.4945 4.6875 22.9688 5.21324 22.9688 5.85938C22.9688 6.50551 23.4945 7.03125 24.1406 7.03125C24.7868 7.03125 25.3125 6.50551 25.3125 5.85938ZM22.9688 24.7266V28.8281C22.9688 29.4754 22.4442 30 21.7969 30C21.1496 30 20.625 29.4754 20.625 28.8281V24.7266C20.625 24.0793 21.1496 23.5547 21.7969 23.5547C22.4442 23.5547 22.9688 24.0793 22.9688 24.7266ZM30 20.0391V15.0586C30 13.4745 29.3495 12.2227 28.119 11.4391C27.1591 10.8275 25.86 10.5176 24.2578 10.5176C23.6105 10.5176 23.0859 11.0422 23.0859 11.6895C23.0859 12.3367 23.6105 12.8613 24.2578 12.8613C27.6562 12.8613 27.6562 14.4576 27.6562 15.0586V20.0391C27.6562 20.5895 27.3935 21.115 26.9531 21.4453C25.9259 22.2157 25.3125 23.4425 25.3125 24.7266V28.8281C25.3125 29.4754 25.8371 30 26.4844 30C27.1317 30 27.6562 29.4754 27.6562 28.8281V24.7266C27.6562 24.1761 27.919 23.6506 28.3594 23.3203C29.3866 22.5499 30 21.3231 30 20.0391Z" fill="#ECB841"/>
</g>
</svg>
