<svg width="30" height="30" viewBox="0 0 30 30" fill="none" xmlns="http://www.w3.org/2000/svg">
<g id="mortarboard">
<path id="Shape" fill-rule="evenodd" clip-rule="evenodd" d="M22.0335 8.51331C22.1441 8.55867 24.7997 9.67921 29.6542 14.5337C30.1117 14.9912 30.1117 15.7331 29.654 16.1907C29.4252 16.4194 29.1254 16.5339 28.8255 16.5339C28.5257 16.5339 28.2258 16.4194 27.9971 16.1907C23.5485 11.7421 21.1598 10.6882 21.1362 10.6781L21.1452 10.6818L20.9033 10.5572L18.9988 14.5596C18.1071 16.4445 16.4474 18.1042 14.5602 18.997L10.6526 20.855L10.7398 21.0945C10.7911 21.2116 11.7718 23.3766 15.5279 27.2686C16.8844 26.2947 19.7382 24.4956 23.5238 23.4654C23.8455 22.3071 24.2861 21.1221 24.8874 19.7923C25.154 19.2027 25.8481 18.941 26.4377 19.2075C27.0273 19.4741 27.2892 20.1682 27.0225 20.7578C26.364 22.2143 25.9196 23.4675 25.6241 24.7018C25.5214 25.1307 25.1865 25.4657 24.7575 25.5684C19.6575 26.7895 16.2124 29.6908 16.1781 29.72C15.9584 29.9074 15.6879 30.0001 15.4182 30.0001C15.1173 30.0001 14.8174 29.8847 14.5895 29.6569C9.73159 24.799 8.61087 22.0821 8.56558 21.9688L8.52474 21.8668L2.34603 24.8047V28.8284C2.34603 29.4755 1.82149 30 1.17438 30C0.527275 30 0.00274414 29.4755 0.00268555 28.8284V23.4387V22.9115V22.1499C0.00268555 21.985 0.0375488 21.8219 0.104932 21.6713L5.3905 9.86009C5.3939 9.85253 5.39729 9.84503 5.40087 9.83759C6.29372 7.9504 7.95339 6.29074 9.84058 5.39788L20.6014 0.335911C21.7686 -0.216276 22.9746 -0.0806904 23.7463 0.691106C24.518 1.46279 24.6537 2.66882 24.1003 3.83835L21.9068 8.44845L22.0335 8.51331ZM13.5561 16.8798C14.9709 16.2104 16.2134 14.9679 16.8818 13.5551L21.9833 2.83382C22.1105 2.56482 22.1007 2.40169 22.0864 2.35101C22.0358 2.33659 21.8723 2.32699 21.6013 2.45525L10.8404 7.51716C9.43347 8.18279 8.19374 9.4207 7.52413 10.8291L4.30944 18.0128L11.2315 10.9046C11.6831 10.441 12.4248 10.4312 12.8884 10.8827C13.352 11.3342 13.3618 12.0759 12.9104 12.5395L4.48206 21.1943L13.5561 16.8798Z" fill="#ECB841"/>
</g>
</svg>
