<svg width="28" height="28" viewBox="0 0 28 28" fill="none" xmlns="http://www.w3.org/2000/svg">
<g id="reward">
<path id="Shape" fill-rule="evenodd" clip-rule="evenodd" d="M25.3381 18.1629L27.4134 20.238C27.7948 20.6194 28.0031 21.1226 27.9997 21.6545C27.9963 22.1918 27.7733 22.7155 27.3874 23.0916C27.0234 23.4465 26.5476 23.6335 26.0097 23.6335H25.9881L23.6934 23.6389L23.688 25.9302C23.6927 26.46 23.4987 26.9551 23.1412 27.3256C22.7655 27.7147 22.2419 27.9407 21.7044 27.9454H21.6869C21.1624 27.9454 20.6667 27.7382 20.2893 27.3608L14.0272 21.1092L7.76428 27.3614C7.38776 27.7382 6.89205 27.9452 6.36735 27.9452H6.34987C5.81259 27.9405 5.28895 27.7145 4.91328 27.3254C4.55552 26.9551 4.36172 26.4598 4.36619 25.9302L4.36086 23.6389L2.06633 23.6335C1.51903 23.6372 1.03591 23.4512 0.666845 23.0916C0.281154 22.7155 0.0579265 22.1918 0.0545152 21.6545C0.0513171 21.1226 0.259407 20.6194 0.641047 20.238L5.51431 15.3649C4.5455 13.8209 3.98434 11.9963 3.98434 10.0429C3.98434 4.50527 8.48961 0 14.0272 0C19.5648 0 24.0701 4.50527 24.0701 10.0429C24.0701 14.936 20.5526 19.0221 15.9137 19.9073L21.5059 25.4906L21.5127 22.5472C21.514 21.9464 22.0009 21.4595 22.6018 21.4582L25.5391 21.4514L23.7944 19.7067C23.368 19.2803 23.368 18.5893 23.7942 18.1629C24.2206 17.7367 24.9118 17.7367 25.3381 18.1629ZM21.8869 10.0429C21.8869 5.70903 18.3611 2.18324 14.0272 2.18324C9.69337 2.18324 6.16758 5.70903 6.16758 10.0429C6.16758 14.3767 9.69337 17.9025 14.0272 17.9025C18.3611 17.9025 21.8869 14.3767 21.8869 10.0429ZM6.54858 25.4903L6.54175 22.5472C6.54026 21.9464 6.05351 21.4595 5.45269 21.4582L2.51513 21.4514L6.87819 17.0885C8.28024 18.511 10.1021 19.5182 12.141 19.9073L6.54858 25.4903ZM16.5054 14.8703C15.2074 14.8703 14.2234 14.2883 13.5536 13.1241C13.0131 12.1864 12.7429 11.5727 12.7429 10.1915C12.7429 8.81026 13.0131 8.19659 13.5536 7.25883C14.2234 6.09472 15.2074 5.51267 16.5054 5.51267C17.8035 5.51267 18.7875 6.09472 19.4573 7.25883C19.9931 8.18735 20.2611 8.80102 20.2611 10.1915C20.2611 11.582 19.9931 12.1956 19.4573 13.1241C18.7875 14.2883 17.8035 14.8703 16.5054 14.8703ZM9.66118 7.63994V13.6785C9.66118 14.0065 9.75703 14.2721 9.94874 14.4753C10.1405 14.6786 10.4003 14.7802 10.7283 14.7802C11.0563 14.7802 11.315 14.6798 11.5044 14.4788C11.6938 14.2779 11.7884 14.0111 11.7884 13.6785V6.69064C11.7884 6.39499 11.703 6.15362 11.5321 5.96653C11.3611 5.77944 11.1302 5.6859 10.8391 5.6859H8.82274C8.55481 5.6859 8.32731 5.7806 8.14022 5.97C7.95313 6.1594 7.85958 6.39037 7.85958 6.66292C7.85958 6.95395 7.94735 7.18954 8.12289 7.3697C8.29843 7.54986 8.53172 7.63994 8.82274 7.63994H9.66118ZM17.822 11.6621C17.5679 12.5121 17.1291 12.9371 16.5054 12.9371C16.1451 12.9371 15.861 12.81 15.6531 12.556C15.1912 11.997 14.9602 11.5727 14.9602 10.1915C14.9602 7.99723 15.4753 7.44592 16.5054 7.44592C16.8704 7.44592 17.1545 7.56372 17.3577 7.79931C17.8197 8.33517 18.0506 8.76868 18.0506 10.1915C18.0506 10.9233 17.9923 11.1113 17.8755 11.4875L17.8754 11.4877L17.8753 11.4881C17.8587 11.5416 17.841 11.5989 17.822 11.6621Z" fill="#ECB841"/>
</g>
</svg>
